<?xml version="1.0" encoding="UTF-8"?>
<svg width="23px" height="23px" viewBox="0 0 23 23" version="1.1" xmlns="http://www.w3.org/2000/svg" xmlns:xlink="http://www.w3.org/1999/xlink">
    <!-- Generator: Sketch 55.2 (78181) - https://sketchapp.com -->
    <title>SG Copy 4</title>
    <desc>Created with Sketch.</desc>
    <g id="SG-Copy-4" stroke="none" stroke-width="1" fill="none" fill-rule="evenodd">
        <rect id="Rectangle-Copy-26" fill="#FFFFFF" x="-1" y="0" width="1650" height="4450"></rect>
        <g id="phone-ringing" transform="translate(2.000000, 2.000000)" fill="#1A1A18" fill-rule="nonzero">
            <path d="M12.2178941,19 C11.6691327,19 11.1250196,18.9029844 10.5929589,18.7096838 C8.24896962,17.8581914 6.07324772,16.4713537 4.30092917,14.6990768 C2.52861061,12.9267999 1.14176636,10.7510551 0.290303089,8.40707705 C0.0166860562,7.65379545 -0.0640610163,6.87621016 0.0503860062,6.09583591 C0.15759501,5.36486589 0.440740994,4.65524461 0.86924499,4.04366813 C1.29964149,3.42940231 1.8734371,2.91849358 2.52857741,2.56618967 C3.22721223,2.19051172 3.98976076,2 4.79510656,2 C5.04558185,2 5.26205838,2.17500649 5.31455062,2.4199027 L6.14838367,6.31111615 C6.18613425,6.4873179 6.13198192,6.67065804 6.00458615,6.79808641 L4.5797921,8.22284047 C5.92387228,10.8951176 8.10484008,13.076075 10.7771299,14.4201488 L12.2018908,12.9953615 C12.3292865,12.8679664 12.5126607,12.8138807 12.6888633,12.8515647 L16.5800953,13.6853938 C16.8250259,13.7378858 17,13.9543612 17,14.2048353 C17,15.0101773 16.8094874,15.7727554 16.4337744,16.4713869 C16.0814688,17.1265241 15.5705577,17.700317 14.9562889,18.1307114 C14.3447428,18.5592134 13.6351181,18.842358 12.9041114,18.9495665 C12.6750513,18.9831999 12.4460245,19 12.2178941,19 L12.2178941,19 Z M4.3706532,3.08569766 C3.30835773,3.20296628 2.36548957,3.75975985 1.73936774,4.65338531 C1.0352878,5.65823667 0.871104297,6.89417231 1.28891727,8.04434779 C2.9259048,12.5506903 6.44932588,16.0740946 10.9556898,17.7110744 C12.1058376,18.1288853 13.3418123,17.9647358 14.3466685,17.260626 C15.2402982,16.6345072 15.7970944,15.6916435 15.9143636,14.6293531 L12.7488592,13.9510411 L11.2608819,15.4390113 C11.1025419,15.5973505 10.8619608,15.6394171 10.6593627,15.5441945 C7.49887181,14.0594116 4.94059738,11.5011494 3.45580746,8.34067353 C3.36061755,8.13804317 3.40265119,7.89746319 3.56099115,7.73915718 L5.04896845,6.25118696 L4.3706532,3.08569766 Z" id="Shape"></path>
            <path d="M18.4117647,10 C18.0869118,10 17.8235294,9.73661765 17.8235294,9.41176471 C17.8235294,4.87080882 14.1291912,1.17647059 9.58823529,1.17647059 C9.26338235,1.17647059 9,0.913088235 9,0.588235294 C9,0.263382353 9.26338235,0 9.58823529,0 C12.1022426,0 14.4657353,0.978970588 16.2433824,2.75661765 C18.0210294,4.53426471 19,6.89775735 19,9.41176471 C19,9.73661765 18.7366544,10 18.4117647,10 Z" id="Path"></path>
            <path d="M15.6369385,10.8147761 C15.2970924,10.8147761 15.0215539,10.5392377 15.0215539,10.1993915 C15.0215539,6.80616074 12.2609385,4.04554536 8.86770776,4.04554536 C8.5278616,4.04554536 8.25232314,3.77000689 8.25232314,3.43016074 C8.25232314,3.09031459 8.5278616,2.81477612 8.86770776,2.81477612 C12.9395924,2.81477612 16.2523231,6.12750689 16.2523231,10.1993915 C16.2523231,10.5392377 15.9768231,10.8147761 15.6369385,10.8147761 Z" id="Path"></path>
            <path d="M12.4444444,11 C12.1376389,11 11.8888889,10.75125 11.8888889,10.4444444 C11.8888889,8.60642361 10.3935764,7.11111111 8.55555556,7.11111111 C8.24875,7.11111111 8,6.86236111 8,6.55555556 C8,6.24875 8.24875,6 8.55555556,6 C11.00625,6 13,7.99375 13,10.4444444 C13,10.75125 12.7512847,11 12.4444444,11 Z" id="Path"></path>
        </g>
    </g>
</svg>