<?xml version="1.0" encoding="UTF-8"?>
<svg width="73px" height="67px" viewBox="0 0 73 67" version="1.1" xmlns="http://www.w3.org/2000/svg" xmlns:xlink="http://www.w3.org/1999/xlink">
    <!-- Generator: Sketch 55.2 (78181) - https://sketchapp.com -->
    <title>SG Copy 2</title>
    <desc>Created with Sketch.</desc>
    <g id="SG-Copy-2" stroke="none" stroke-width="1" fill="none" fill-rule="evenodd">
        <rect id="Rectangle-Copy-26" fill="#FFFFFF" x="0" y="0" width="1650" height="4450"></rect>
        <circle id="Oval-Copy-6" stroke="#FEE600" stroke-width="2" cx="39" cy="30" r="22"></circle>
        <g id="phone-call" transform="translate(8.000000, 22.000000)" fill="#000000" fill-rule="nonzero">
            <path d="M36.0493921,28.7577227 L29.91889,22.6247893 C28.6483897,21.3536977 26.5918571,21.3534808 25.32114,22.6247893 L23.7884603,24.1580949 C22.5206337,25.4262946 20.4581754,25.42615 19.1855794,24.1530343 L12.7668101,17.8166625 C11.4991281,16.5484628 11.4991281,14.4851622 12.7668101,13.2169625 L14.2994176,11.6837291 C15.5670995,10.4156017 15.5670995,8.35222873 14.2994176,7.08402901 L8.16906005,0.951095568 C6.90137806,-0.31710415 4.83870293,-0.31695956 3.57123773,0.951095568 L2.03877482,2.48432893 C0.049449205,4.47439469 -0.535612557,8.8621257 0.511876356,13.9350692 C1.17946536,17.168176 3.10006645,23.3929964 8.46253039,28.7576504 C13.8141545,34.1115324 19.9859924,35.948911 23.1885841,36.5676121 C26.708855,37.2476916 31.999198,37.4090541 34.5167124,34.8906561 L36.0494643,33.3573505 C37.3168573,32.0892231 37.3168573,30.0258501 36.0493921,28.7577227 Z M5.1039897,2.48432893 C5.52659854,2.06161979 6.2139883,2.06154749 6.63666941,2.48432893 L12.7670992,8.61726238 C13.189708,9.04004381 13.189708,9.7277866 12.7670992,10.150568 L12.0046255,10.9133531 L4.34144379,3.24718627 L5.1039897,2.48432893 Z M23.5996304,34.4386675 C20.6405014,33.8670306 14.9382449,32.1696152 9.99513783,27.2244893 C5.03194097,22.2591209 3.25312485,16.492145 2.63453188,13.4964551 C1.81511299,9.52832456 2.15627858,6.54550321 2.95192211,4.92349153 L10.5482582,12.5230023 C9.15418381,14.6271497 9.38326555,17.4981306 11.2394058,19.3549566 L17.658175,25.6913283 C19.5089676,27.5428767 22.3771144,27.7734256 24.4822094,26.3776974 L32.0846881,33.9833533 C29.7679996,35.1586539 26.1652014,34.9342501 23.5996304,34.4386675 Z M34.5167846,31.8241171 L33.7542387,32.5869745 L26.0912015,24.92088 L26.8536752,24.1580949 C27.2771512,23.7343736 27.962662,23.7343736 28.3862826,24.1580949 L34.5167124,30.2910284 C34.9392489,30.7136652 34.9392489,31.4014803 34.5167846,31.8241171 Z" id="Shape"></path>
            <path d="M21.0624867,0 C20.4756959,0 20,0.475695906 20,1.06248672 C20,1.64927752 20.4756959,2.12497343 21.0624867,2.12497343 C28.6787225,2.12497343 34.8750266,8.32127749 34.8750266,15.9375133 C34.8750266,16.5243041 35.3507225,17 35.9375133,17 C36.5243041,17 37,16.5243041 37,15.9375133 C37,7.14953801 29.850462,0 21.0624867,0 Z" id="Path"></path>
            <path d="M21.0833213,4 C20.485024,4 20,4.48502395 20,5.08332129 C20,5.68161864 20.485024,6.16664259 21.0833213,6.16664259 C26.459473,6.16664259 30.8333574,10.540527 30.8333574,15.9166787 C30.8333574,16.514976 31.3183814,17 31.9166787,17 C32.514976,17 33,16.514976 33,15.9166787 C33,9.3458106 27.6541894,4 21.0833213,4 Z" id="Path"></path>
            <path d="M21.1249906,8 C20.5036801,8 20,8.50368012 20,9.12499062 C20,9.74630113 20.5036801,10.2499812 21.1249906,10.2499812 C24.2266669,10.2499812 26.7500188,12.7733331 26.7500188,15.8750094 C26.7500188,16.4963199 27.2536989,17 27.8750094,17 C28.4963199,17 29,16.4963199 29,15.8750094 C29,11.5327376 25.4672624,8 21.1249906,8 Z" id="Path"></path>
            <path d="M21,13 C20.4477194,13 20,13.4477194 20,14 C20,14.5522806 20.4477194,15 21,15 C21.5514137,15 22,15.4485863 22,16 C22,16.5522806 22.4477194,17 23,17 C23.5522806,17 24,16.5522806 24,16 C24.0000667,14.3457589 22.6542411,13 21,13 Z" id="Path"></path>
        </g>
    </g>
</svg>