<?xml version="1.0" encoding="UTF-8"?>
<svg width="73px" height="67px" viewBox="0 0 73 67" version="1.1" xmlns="http://www.w3.org/2000/svg" xmlns:xlink="http://www.w3.org/1999/xlink">
    <!-- Generator: Sketch 55.2 (78181) - https://sketchapp.com -->
    <title>SG Copy 2</title>
    <desc>Created with Sketch.</desc>
    <g id="SG-Copy-2" stroke="none" stroke-width="1" fill="none" fill-rule="evenodd">
        <rect id="Rectangle-Copy-26" fill="#FFFFFF" x="0" y="0" width="1650" height="4450"></rect>
        <circle id="Oval-Copy-6" stroke="#FEE600" stroke-width="2" cx="39" cy="30" r="22"></circle>
        <g id="facebook-(4)" transform="translate(10.000000, 27.000000)" fill="#000000" fill-rule="nonzero">
            <path d="M26.484375,0 L3.515625,0 C1.57710938,0 0,1.57710938 0,3.515625 L0,26.484375 C0,28.4228906 1.57710938,30 3.515625,30 L26.484375,30 C28.4228906,30 30,28.4228906 30,26.484375 L30,3.515625 C30,1.57710938 28.4228906,0 26.484375,0 Z M27.65625,26.484375 C27.65625,27.1305469 27.1305469,27.65625 26.484375,27.65625 L19.8046875,27.65625 L19.8046875,18.1054688 L23.4251953,18.1054688 L24.0234375,14.4726563 L19.8046875,14.4726563 L19.8046875,11.953125 C19.8046875,10.9584961 20.5678711,10.1953125 21.5625,10.1953125 L23.9648438,10.1953125 L23.9648438,6.5625 L21.5625,6.5625 C18.5787305,6.5625 16.1731641,8.97949219 16.1731641,11.9633203 L16.1731641,14.4726563 L12.65625,14.4726563 L12.65625,18.1054688 L16.1731641,18.1054688 L16.1731641,27.65625 L3.515625,27.65625 C2.86945312,27.65625 2.34375,27.1305469 2.34375,26.484375 L2.34375,3.515625 C2.34375,2.86945313 2.86945312,2.34375 3.515625,2.34375 L26.484375,2.34375 C27.1305469,2.34375 27.65625,2.86945313 27.65625,3.515625 L27.65625,26.484375 Z" id="Shape"></path>
        </g>
    </g>
</svg>