<?xml version="1.0" encoding="UTF-8"?>
<svg width="73px" height="67px" viewBox="0 0 73 67" version="1.1" xmlns="http://www.w3.org/2000/svg" xmlns:xlink="http://www.w3.org/1999/xlink">
    <!-- Generator: Sketch 55.2 (78181) - https://sketchapp.com -->
    <title>SG Copy 2</title>
    <desc>Created with Sketch.</desc>
    <g id="SG-Copy-2" stroke="none" stroke-width="1" fill="none" fill-rule="evenodd">
        <rect id="Rectangle-Copy-26" fill="#FFFFFF" x="0" y="0" width="1650" height="4450"></rect>
        <circle id="Oval-Copy-6" stroke="#FEE600" stroke-width="2" cx="39" cy="30" r="22"></circle>
        <g id="paper-plane-(1)" transform="translate(3.000000, 21.000000)" fill="#000000" fill-rule="nonzero">
            <path d="M38.6144655,0.100403928 C38.3761142,-0.0355761176 38.0829705,-0.0332843191 37.8468354,0.106362604 L23.8427247,8.38464441 C23.4794282,8.59938593 23.3590681,9.06782954 23.5738822,9.43100322 C23.78862,9.79410049 24.257222,9.91441992 24.620595,9.69975479 L34.6683346,3.76025337 L15.952832,23.1727799 L6.64437095,20.3259078 L18.7923374,13.1449391 C19.155634,12.9301212 19.2759941,12.4616776 19.0611799,12.0985039 C18.8464422,11.7354066 18.3777637,11.6149344 18.0144672,11.8297523 L4.37525782,19.8922231 C4.11466859,20.0463084 3.96954867,20.3395822 4.00538924,20.6401897 C4.04122981,20.9407973 4.25115316,21.1918256 4.54062881,21.2803655 L15.6572428,24.6801722 L20.5615931,33.6039008 C20.5667132,33.6131444 20.5719861,33.6209365 20.5774118,33.6278883 C20.6592567,33.7643267 20.7819094,33.8757845 20.9349005,33.9401077 C21.0306537,33.9803669 21.1312977,34 21.2312539,34 C21.4271161,34 21.6199216,33.9246762 21.7655,33.7823555 L27.404773,28.2728719 L38.0122064,31.5169891 C38.0855687,31.5393723 38.1608416,31.5504494 38.2357323,31.5504494 C38.3974352,31.5504494 38.5571512,31.4991131 38.6902733,31.4006421 C38.8850656,31.2565644 39,31.0286832 39,30.7865165 L39,0.76395599 C39,0.489627708 38.8528168,0.236307579 38.6144655,0.100403928 Z M20.6032415,25.150984 C20.5147481,25.2787899 20.4672919,25.430507 20.4672919,25.5859673 L20.4672919,30.2590209 L17.1183765,24.1655106 L31.93765,8.79441798 L20.6032415,25.150984 Z M21.9956744,31.4212683 L21.9956744,26.6186517 L25.7394474,27.7636343 L21.9956744,31.4212683 Z M37.4716175,29.7539085 L22.4553355,25.1614499 L37.4716175,3.49150179 L37.4716175,29.7539085 Z" id="Shape"></path>
            <path d="M12.7674621,26.2325394 C12.4573322,25.9224869 11.9547407,25.9224869 11.6445314,26.2325394 L4.23253788,33.644582 C3.92248737,33.9546346 3.92248737,34.4573882 4.23253788,34.7675201 C4.38768223,34.9225067 4.59086257,35 4.79404292,35 C4.99722326,35 5.20040361,34.9225067 5.35546856,34.7674407 L12.7674621,27.3553981 C13.0775126,27.045425 13.0775126,26.5426714 12.7674621,26.2325394 Z" id="Path"></path>
            <path d="M2.79566623,36.2042222 C2.52315143,35.9319143 2.08151839,35.9319143 1.80900359,36.2042919 L0.204333771,37.8089758 C-0.0681112571,38.0814232 -0.0681112571,38.5231996 0.204333771,38.7957168 C0.34059117,38.9319056 0.519128129,39 0.697665089,39 C0.876202049,39 1.05473901,38.9318358 1.19099641,38.795647 L2.79566623,37.1909632 C3.06811126,36.9185158 3.06811126,36.4767394 2.79566623,36.2042222 Z" id="Path"></path>
            <path d="M11.7069,37.293 C11.521,37.107 11.263,37 11,37 C10.7359,37 10.479,37.107 10.293,37.293 C10.107,37.479 10,37.736 10,38 C10,38.263 10.1069,38.521 10.293,38.707 C10.479,38.893 10.737,39 11,39 C11.263,39 11.521,38.893 11.7069,38.707 C11.8929,38.521 12,38.263 12,38 C12,37.736 11.893,37.479 11.7069,37.293 Z" id="Path"></path>
            <path d="M16.7891332,32.2108691 C16.5081215,31.9297103 16.0523684,31.9297103 15.7709247,32.2108691 L12.2108668,35.7708934 C11.9297111,36.0520522 11.9297111,36.5079542 12.2108668,36.7891129 C12.3514807,36.9297283 12.5357259,37 12.7199711,37 C12.9042163,37 13.0884615,36.9296563 13.2290753,36.7891129 L16.7891332,33.2290886 C17.0702889,32.9479298 17.0702889,32.4920278 16.7891332,32.2108691 Z" id="Path"></path>
            <path d="M29.7895393,32.2104053 C29.5088532,31.9298649 29.0539778,31.9298649 28.7732917,32.2104053 L25.2104607,35.7732107 C24.9298464,36.0538229 24.9298464,36.5088387 25.2104607,36.7895229 C25.3508038,36.929793 25.5346941,37 25.7185845,37 C25.9024749,37 26.0863652,36.929793 26.2267083,36.7895229 L29.7895393,33.2267174 C30.0701536,32.9461052 30.0701536,32.4910894 29.7895393,32.2104053 Z" id="Path"></path>
            <path d="M21.707,10.293 C21.521,10.107 21.263,10 21,10 C20.737,10 20.479,10.107 20.293,10.293 C20.1071,10.479 20,10.737 20,11.001 C20,11.264 20.107,11.521 20.293,11.707 C20.479,11.894 20.737,12 21,12 C21.263,12 21.521,11.894 21.707,11.707 C21.8929,11.521 22,11.264 22,11.001 C22,10.737 21.893,10.479 21.707,10.293 Z" id="Path"></path>
        </g>
    </g>
</svg>