<?xml version="1.0" encoding="UTF-8"?>
<svg width="92px" height="56px" viewBox="0 0 92 56" version="1.1" xmlns="http://www.w3.org/2000/svg" xmlns:xlink="http://www.w3.org/1999/xlink">
    <!-- Generator: Sketch 55.2 (78181) - https://sketchapp.com -->
    <title>logo</title>
    <desc>Created with Sketch.</desc>
    <g id="logo" stroke="none" stroke-width="1" fill="none" fill-rule="evenodd">
        <rect id="Rectangle-Copy-26" fill="#FFFFFF" x="-2" y="-3" width="1650" height="4450"></rect>
        <g id="Group-13-Copy">
            <polygon id="Fill-1" fill="#1A1A18" points="16 40 16 43.2019964 12.1956163 43.2019964 12.1956163 56 5.78912509 56 5.78912509 43.2019964 2 43.2019964 2 40"></polygon>
            <polygon id="Fill-2" fill="#1A1A18" points="18 56 24 56 24 40 18 40"></polygon>
            <path d="M27,40 L33.5446834,40 C35.3146067,40 36.6754967,40.0889188 37.6273532,40.2668271 C38.5792098,40.4447355 39.2943671,40.7016513 39.7728998,41.0376454 C40.251358,41.3737102 40.5755637,41.7804995 40.7452935,42.2581547 C40.9150978,42.73581 41,43.4754075 41,44.4768057 L41,45.8702678 C41,46.8914886 40.83533,47.635971 40.5060644,48.1037858 C40.1767989,48.5715297 39.5722152,48.930603 38.6923878,49.1809349 C37.8125605,49.4313375 36.6626237,49.5565034 35.2425776,49.5565034 L33.4983258,49.5565034 L33.4983258,56 L27,56 L27,40 Z M33.4983258,42.7375091 L33.4983258,46.8091538 C33.6836074,46.8157378 33.8430687,46.8189944 33.9768584,46.8189944 C34.5737034,46.8189944 34.9878711,46.7251199 35.219436,46.537371 C35.4509264,46.3496221 35.5667088,45.9592574 35.5667088,45.3662767 L35.5667088,44.0518929 C35.5667088,43.5050707 35.4329191,43.149254 35.1654141,42.9845843 C34.8978347,42.8198439 34.3421386,42.7375091 33.4983258,42.7375091 Z" id="Fill-3" fill="#1A1A18"></path>
            <polygon id="Fill-4" fill="#1A1A18" points="59 40 59 43.2019964 55.1956697 43.2019964 55.1956697 56 48.7891449 56 48.7891449 43.2019964 45 43.2019964 45 40"></polygon>
            <path d="M76,49.3135849 C76,50.8563373 75.9413482,51.9486361 75.8233023,52.5904134 C75.7052564,53.2321908 75.3355276,53.8185956 74.714116,54.3497639 C74.0934468,54.8808642 73.2537616,55.2886503 72.1965452,55.5731902 C71.1388091,55.8577301 69.9067511,56 68.5001485,56 C67.1654128,56 65.9666898,55.8656113 64.9040537,55.5969019 C63.8414175,55.3281924 62.9866611,54.9250943 62.3398584,54.3876754 C61.6929816,53.8502565 61.3079588,53.2653463 61.1847901,52.6330808 C61.0615472,52.0008153 61,50.8943167 61,49.3135849 L61,46.6864151 C61,45.1436627 61.059023,44.0513639 61.1770689,43.4095866 C61.2951148,42.7678092 61.6647694,42.1813364 62.2859582,41.6502361 C62.9070729,41.1191358 63.7464611,40.7112817 64.8039745,40.4267419 C65.8614878,40.1422699 67.0935458,40 68.5001485,40 C69.8348842,40 71.033533,40.1343208 72.0963176,40.4030302 C73.1587309,40.6718076 74.0132647,41.0748378 74.6606613,41.6123246 C75.3073154,42.1497435 75.6926351,42.7346537 75.8151356,43.3669192 C75.9383785,43.9991847 76,45.1056833 76,46.6864151 L76,49.3135849 Z M69.5166056,44.2678941 C69.5166056,43.5534192 69.4523857,43.0965791 69.3240942,42.897442 C69.1957286,42.6982369 68.9313502,42.5987023 68.5309592,42.5987023 C68.1921154,42.5987023 67.9328598,42.6792812 67.7531924,42.8405068 C67.573525,43.0017325 67.4836913,43.4775283 67.4836913,44.2678941 L67.4836913,51.4380541 C67.4836913,52.3295852 67.5427143,52.8796413 67.6607602,53.0882902 C67.7788804,53.2970072 68.0535043,53.4012977 68.484706,53.4012977 C68.9262275,53.4012977 69.2085726,53.2811768 69.3317412,53.0408669 C69.4549842,52.8006251 69.5166056,52.22842 69.5166056,51.3242518 L69.5166056,44.2678941 Z" id="Fill-5" fill="#1A1A18"></path>
            <path d="M77,40 L83.5449907,40 C85.31443,40 86.6753654,40.0889188 87.6270529,40.2668271 C88.5794845,40.4447355 89.2945522,40.7016513 89.7730003,41.0376454 C90.2514483,41.3737102 90.5751262,41.7804995 90.7455222,42.2581547 C90.9151741,42.73581 91,43.4754075 91,44.4768057 L91,45.8702678 C91,46.8914886 90.8355567,47.635971 90.5059261,48.1037858 C90.1762955,48.5715297 89.5720967,48.930603 88.6925857,49.1809349 C87.8123306,49.4313375 86.6627159,49.5565034 85.2422535,49.5565034 L83.4981132,49.5565034 L83.4981132,56 L77,56 L77,40 Z M83.4981132,42.7375091 L83.4981132,46.8091538 C83.6833909,46.8157378 83.8433697,46.8189944 83.9765613,46.8189944 C84.5733192,46.8189944 84.9877757,46.7251199 85.2191868,46.537371 C85.4505979,46.3496221 85.5666755,45.9592574 85.5666755,45.3662767 L85.5666755,44.0518929 C85.5666755,43.5050707 85.4327398,43.149254 85.1656125,42.9845843 C84.8977412,42.8198439 84.3419081,42.7375091 83.4981132,42.7375091 Z" id="Fill-6" fill="#1A1A18"></path>
            <path d="M3.91285227,36.9981537 L88.2243934,37 C91.5392281,37.0017125 93.2206968,34.8144792 90.9754374,32.7775691 C89.6681786,31.5909313 84.8628708,32.1155141 82.8326583,32.1155141 L3.91285227,32.1155141 C-1.43261938,32.1057605 -1.17435089,36.9981537 3.91285227,36.9981537" id="Fill-7" fill="#1A1A18"></path>
            <path d="M4,29 L87,28.9712122 C86.2882276,23.9150041 83.7857264,13.2110515 82.5245901,7.19503605 C81.8693076,4.06931811 81.6200461,2.9623019 78.5406421,2.35000976 C69.5795835,0.568434416 55.2049595,0.0183381982 45.7686093,0.000425774466 C35.5910414,-0.0193347564 22.7152349,0.647405459 12.9181969,2.27764926 C8.1909834,3.06444536 8.69120119,5.95282368 7.03505945,14.0903951 C6.01400506,19.1070821 4.7006156,24.0627105 4,29" id="Fill-8" fill="#1A1A18"></path>
            <path d="M40.5283896,18.0074628 C40.949521,17.9865311 40.3996304,16.5505381 39.2785382,14.6076265 C38.3862292,17.0371468 38.0455981,17.7137291 38.0834078,17.9571025 C38.1042375,18.0930545 40.273346,18.0199665 40.5283896,18.0074628 Z M37.2520755,23.9901798 L31,23.9882455 C31.5362791,21.4057101 34.8170617,9.6030316 35.8322867,8 L43.463729,8.02058623 L48,23.9659323 L41.2324751,23.9968116 C41.1624928,23.9972261 41.0760117,23.9978478 41.0196408,24 C41.0169598,24.0001966 41.0169598,23.9944628 41.0161348,23.9913542 C40.2435107,21.6374088 37.8634241,21.6377542 37.2520755,23.9901798 L37.2520755,23.9901798 Z" id="Fill-9" fill="#FFFFFF"></path>
            <polygon id="Fill-10" fill="#FFFFFF" points="51.2282555 8.0277875 58.0597752 8.01099058 59.3072455 11.9111249 60.9627881 8 67.7594623 8.00981548 63.8716661 15.7621127 68 23.984309 61.2041539 23.9931568 59.3020014 19.4754073 57.6032642 24 51 23.9882491 55.136062 16.0545036"></polygon>
            <polygon id="Fill-11" fill="#FFFFFF" points="16.0455598 8.00117724 31 8 30.9818884 13.1274318 26.5649 13.1154517 26.5654616 23.9993768 20.4894349 24 20.4954019 13.1527771 16 13.1325563"></polygon>
            <polygon id="Fill-12" fill="#FFFFFF" points="71 8 76.9958517 8.00159274 77 17.1134954 76.9993086 20.4723673 76.9958517 24 76.3653135 23.9962605 71.0112004 23.9915516"></polygon>
        </g>
    </g>
</svg>