<svg xmlns="http://www.w3.org/2000/svg" width="52.496" height="50.327" viewBox="0 0 52.496 50.327"><defs><style>.a{fill:#e2eaed;}</style></defs><g transform="translate(0)"><path class="a" d="M456.735,251.813h-2.586a1.026,1.026,0,0,0-.809.395l-1.56,2a1.025,1.025,0,0,0,1.617,1.261l1.252-1.6h2.085a1.026,1.026,0,0,0,0-2.051Zm0,0" transform="translate(-405.264 -225.994)"/><path class="a" d="M43.118,84.906a1.025,1.025,0,0,0-1.439.178l-1.442,1.849H35.748L32.163,74.648a2.773,2.773,0,0,0-.984-5.366H30.6l-.743-2.546a1.025,1.025,0,0,0-1.969.574l.576,1.972h-.547L24.1,65.646c.081-.051.161-.1.24-.159a4.974,4.974,0,1,0-6.422-.58,5.292,5.292,0,0,0-.8.467,3.55,3.55,0,0,0-2.569-1.979,3.454,3.454,0,0,0-2.618.583,3.558,3.558,0,0,0-1.464,2.343,3.626,3.626,0,0,0,.145,1.774,1.011,1.011,0,0,0-.144.083,1.025,1.025,0,0,0-.423.664L8.606,77.114a2.717,2.717,0,0,0,2.138,3.17l1.727.31a2.613,2.613,0,0,0,.463.042,2.578,2.578,0,0,0,.34-.025l-.32,4.907-2.488,5.133a3.528,3.528,0,0,0-.019,3.047H9.257a1.026,1.026,0,0,0-.552.161L.475,99.106a1.025,1.025,0,1,0,1.1,1.729l7.978-5.088h3.9c.067,0,.133.006.2.006s.11,0,.165-.006H24.757a1.025,1.025,0,0,0,.706-.282l6.822-6.481h8.453a1.025,1.025,0,0,0,.808-.395l1.75-2.243A1.026,1.026,0,0,0,43.118,84.906ZM17.467,81.135a4.007,4.007,0,0,1-1.2-.287,1.655,1.655,0,0,1-.843-1.749c.033-.194.066-.389.1-.583a12.808,12.808,0,0,0,6.439-1.867l-.24,1.407a1.026,1.026,0,0,0,.566,1.1l3.65,1.759,4.241,5.354a1.5,1.5,0,1,1-2.358,1.868l-3.665-4.627a1.024,1.024,0,0,0-.358-.287L20.71,81.729a1.024,1.024,0,0,0-.272-.087ZM31.789,84.99,27.4,79.451a1.029,1.029,0,0,0-.254-.228,1.042,1.042,0,0,0-.106-.059l-3.164-1.525.48-2.81H30.08l3.533,12.1H32.546A3.531,3.531,0,0,0,31.789,84.99ZM27.5,71.333h3.676a.723.723,0,0,1,0,1.446H23.873L21.8,70.992a1.025,1.025,0,0,0-1.339,1.554l1.622,1.4a9.275,9.275,0,0,1-6.2,2.5l.377-2.2.712-4.165s0-.006,0-.008l.211-1.235c.2-1.2,1.225-2.453,3.472-2.453l.157,0h.026a2.492,2.492,0,0,1,1.779.683l.04.038,4.14,3.951A1.026,1.026,0,0,0,27.5,71.333ZM18.593,60.938a2.923,2.923,0,1,1,2.387,3.371A2.926,2.926,0,0,1,18.593,60.938Zm-6.1,5.721a1.523,1.523,0,0,1,.623-1,1.415,1.415,0,0,1,1.075-.24A1.548,1.548,0,0,1,15.4,67.206a1.523,1.523,0,0,1-.623,1,1.418,1.418,0,0,1-1.074.24A1.548,1.548,0,0,1,12.491,66.658Zm.342,11.916-1.727-.31a.666.666,0,0,1-.48-.8l1.264-7.256,2.886.518-.487,2.848-.775,4.534A.634.634,0,0,1,12.833,78.575Zm.176,14.978a1.5,1.5,0,0,1-.7-2.009l2.575-5.312a1.014,1.014,0,0,0,.1-.38L15.2,82.6a7.615,7.615,0,0,0,2.559.664l.488.083-.231,3.325-3,6.182a1.5,1.5,0,0,1-1.24.841h-.233A1.5,1.5,0,0,1,13.009,93.552Zm11.338.144H16.89l3.058-6.307a1.026,1.026,0,0,0,.1-.377l.223-3.218L22.7,84.963l3.519,4.442a3.53,3.53,0,0,0,1.49,1.1Zm0,0" transform="translate(-0.001 -50.669)"/><path class="a" d="M347.187,47.452h5.246a3.937,3.937,0,1,0-1.518-7.57,4.7,4.7,0,1,0-3.728,7.57Zm0-7.355a2.653,2.653,0,0,1,2.434,1.6,1.025,1.025,0,0,0,1.6.376,1.861,1.861,0,0,1,1.212-.441,1.887,1.887,0,0,1,0,3.773h-5.246a2.652,2.652,0,0,1,0-5.3Zm0,0" transform="translate(-307.369 -34.146)"/><path class="a" d="M27.686,39.012a3.744,3.744,0,1,0-3.744-3.744A3.749,3.749,0,0,0,27.686,39.012Zm-1.2-4.942a1.694,1.694,0,1,1-.5,1.2A1.683,1.683,0,0,1,26.488,34.07Zm0,0" transform="translate(-21.486 -28.291)"/><path class="a" d="M.513,31.044l.481.278a1.025,1.025,0,1,0,1.025-1.776l-.481-.278A1.025,1.025,0,0,0,.513,31.044Zm0,0" transform="translate(0 -26.144)"/><path class="a" d="M98.248,85.1l-.481-.278A1.025,1.025,0,1,0,96.742,86.6l.481.278A1.025,1.025,0,0,0,98.248,85.1Zm0,0" transform="translate(-86.362 -76.006)"/><path class="a" d="M1.027,87.018a1.021,1.021,0,0,0,.512-.138l.481-.278A1.025,1.025,0,1,0,.994,84.827L.513,85.1a1.026,1.026,0,0,0,.514,1.914Zm0,0" transform="translate(0 -76.006)"/><path class="a" d="M97.256,31.46a1.023,1.023,0,0,0,.511-.137l.481-.278a1.025,1.025,0,0,0-1.025-1.776l-.481.278a1.026,1.026,0,0,0,.514,1.914Zm0,0" transform="translate(-86.362 -26.145)"/><path class="a" d="M51.486,2.634a1.025,1.025,0,0,0,1.025-1.025V1.025a1.025,1.025,0,0,0-2.051,0v.584A1.025,1.025,0,0,0,51.486,2.634Zm0,0" transform="translate(-45.287)"/><path class="a" d="M50.461,112.35v.584a1.025,1.025,0,1,0,2.051,0v-.584a1.025,1.025,0,0,0-2.051,0Zm0,0" transform="translate(-45.287 -99.91)"/><path class="a" d="M429,301.322a1.025,1.025,0,1,0-.378,1.245A1.034,1.034,0,0,0,429,301.322Zm0,0" transform="translate(-383.245 -269.859)"/></g></svg>