<svg xmlns="http://www.w3.org/2000/svg" width="75.681" height="47.937" viewBox="0 0 75.681 47.937"><defs><style>.a{fill:#e2eaed;}</style></defs><g transform="translate(0 -93.844)"><path class="a" d="M13.009,141.536a1.109,1.109,0,0,0,.388-2.183,13.574,13.574,0,1,1,7.446-25.959l-.677,1.354A12.066,12.066,0,1,0,27.8,127.1h1.512a13.543,13.543,0,0,1-11.133,12.254,1.108,1.108,0,1,0,.388,2.183,15.753,15.753,0,0,0,12.515-11.622,5.33,5.33,0,0,0,2.506,1.3v2.266h-.971a1.109,1.109,0,1,0,0,2.217h4.16a1.109,1.109,0,1,0,0-2.217H35.81v-2.266a5.335,5.335,0,0,0,3.169-8.411l13.113-14.524,1.25,3.346a15.726,15.726,0,1,0,2.077-.777l-3.8-10.162h6.352a2.933,2.933,0,0,0,2.71,1.82.43.43,0,1,1,0,.861H59.335a2.929,2.929,0,1,0,0,5.858h1.349a6.288,6.288,0,1,0,0-12.576,2.933,2.933,0,0,0-2.71,1.82H50.026a1.11,1.11,0,0,0-1.039,1.5l1.124,3.011H27.5l-.706-1.89a3.216,3.216,0,0,0,1.1-1.142,1,1,0,0,1,.871-.507h4.714a1.838,1.838,0,0,0,1.7-2.531h0a4.9,4.9,0,0,0-4.551-3.06H19.278a2.75,2.75,0,0,0-2.747,2.747,4.985,4.985,0,0,0,4.98,4.98h3.1l.914,2.448L21.837,111.4a15.791,15.791,0,1,0-8.827,30.132Zm46.881-29.118a13.578,13.578,0,1,1-5.771,1.29l.529,1.415a12.067,12.067,0,1,0,16.968,13.715,1.109,1.109,0,0,0-2.155-.522,9.849,9.849,0,1,1-14.033-11.1l2.365,6.332a3.221,3.221,0,1,0,2.1-.778h-.02l-2.365-6.334a9.848,9.848,0,0,1,11.957,7.23,1.109,1.109,0,0,0,2.155-.522,12.061,12.061,0,0,0-14.891-8.8l-.53-1.418A13.547,13.547,0,0,1,59.891,112.418Zm0,12.567a1.006,1.006,0,1,1-1.006,1.006A1.007,1.007,0,0,1,59.891,124.985Zm-37.065-10.6a13.589,13.589,0,0,1,6.492,10.495H27.8a12.078,12.078,0,0,0-5.655-9.141Zm-4.008,10.495a3.23,3.23,0,0,0-.684-1.1l3.02-6.045a9.858,9.858,0,0,1,4.423,7.147Zm-3.027.1a1.006,1.006,0,1,1-1.006,1.006A1.007,1.007,0,0,1,15.79,124.985Zm0,10.856a9.85,9.85,0,1,1,3.382-19.1l-3.022,6.049a3.223,3.223,0,1,0,2.667,4.311h6.759a9.863,9.863,0,0,1-9.786,8.741ZM35.81,128.9v-2.914a1.109,1.109,0,1,0-2.217,0V128.9a3.121,3.121,0,1,1,2.217,0Zm24.875-30.04a4.071,4.071,0,1,1,0,8.142H59.335a.712.712,0,1,1,0-1.423h1.349a2.648,2.648,0,1,0,0-5.3.712.712,0,0,1,0-1.424Zm-9.745,6.328.278.746-13.9,15.4a5.306,5.306,0,0,0-3.2-.653l-5.786-15.494H50.94Zm-32.192-8.6a.53.53,0,0,1,.53-.53H30.635a2.686,2.686,0,0,1,2.215,1.157H28.77a3.225,3.225,0,0,0-2.8,1.629,1,1,0,0,1-.871.507H21.51A2.766,2.766,0,0,1,18.748,96.592Zm7.838,10.267,5.424,14.525a5.37,5.37,0,0,0-.924.684,15.852,15.852,0,0,0-7.268-9.668Z"/></g></svg>