<svg xmlns="http://www.w3.org/2000/svg" width="51.039" height="51.259" viewBox="0 0 51.039 51.259"><defs><style>.a{fill:#e2eaed;}</style></defs><g transform="translate(-1 -0.741)"><path class="a" d="M46.537,51.946,35.23,47.235,32.88,41.53A2.46,2.46,0,0,0,30.6,40H28.508a5.163,5.163,0,0,0-5.016,3.917l-.066.262.562,1.367-15.359,6.4A2.647,2.647,0,0,0,7.28,55.573l.92,1.843a2.736,2.736,0,0,0,2.461,1.521,2.768,2.768,0,0,0,1.23-.291l7.321-3.66-.429.8a2.139,2.139,0,0,0,1.882,3.155h1.686a2.459,2.459,0,0,0,2.294-1.553l2.078-5.2,2.149,5.218a2.46,2.46,0,0,0,2.284,1.53H34.17a4.108,4.108,0,0,0,3.908-2.888l5.2,2.6a2.776,2.776,0,0,0,1.23.29,2.736,2.736,0,0,0,2.461-1.521l.92-1.842a2.645,2.645,0,0,0-1.349-3.628ZM30.6,41.647a.82.82,0,0,1,.762.51L36.233,54H34.271a5.162,5.162,0,0,0-1.138.142L28.006,41.687a3.493,3.493,0,0,1,.5-.04ZM11.156,57.173a1.129,1.129,0,0,1-1.483-.494l-.921-1.843a1,1,0,0,1,.51-1.371l13.884-5.785-2.577,4.786Zm11.96-.4a.819.819,0,0,1-.764.518H20.665a.494.494,0,0,1-.492-.492.483.483,0,0,1,.059-.233l4.7-8.727L25.823,50Zm2.045-12.7a3.517,3.517,0,0,1,1.314-1.774L31.6,54.752a5.16,5.16,0,0,0-1.493,1.341ZM34.17,57.29H31.3a3.515,3.515,0,0,1,2.971-1.647h2.216A2.464,2.464,0,0,1,34.17,57.29Zm12.244-2.453-.92,1.843a1.127,1.127,0,0,1-1.482.494l-5.9-2.952-1.99-4.834L45.9,53.465a1,1,0,0,1,.51,1.372Z" transform="translate(-1.06 -6.936)"/><path class="a" d="M51.271,9.845a1.8,1.8,0,0,1,.094,2.134,4.266,4.266,0,0,0,.533,5.386l.637.637L53.7,16.839l-.637-.637a2.621,2.621,0,0,1-.328-3.308,3.445,3.445,0,0,0-.177-4.077L51.219,7.145a2.614,2.614,0,0,1,1.611-4.21l.72-.12-.106.319A5.923,5.923,0,0,0,55.372,9.6a2.792,2.792,0,0,1,1.038,2.178,2.874,2.874,0,0,1-.828,2.01L55,14.368l1.164,1.164.581-.581a4.474,4.474,0,0,0-.392-6.669,4.253,4.253,0,0,1-1.353-4.627L55.977.741l-3.418.569a4.26,4.26,0,0,0-2.626,6.863Z" transform="translate(-8.481)"/><path class="a" d="M7.836,18.858l.913-1.37-.539-.36a3.513,3.513,0,0,1-.534-5.407l.817-.817A4.908,4.908,0,0,0,9.94,7.412V5H8.293V7.412a3.273,3.273,0,0,1-.965,2.329l-.817.817A5.16,5.16,0,0,0,7.3,18.5Z" transform="translate(-0.707 -0.752)"/><path class="a" d="M18.307,22.934l1.265-1.055L17.253,19.1a6.93,6.93,0,0,1,2.006-10.52L21.043,7.6A4.622,4.622,0,0,0,23.4,2.773a5.413,5.413,0,0,1,3.814,3.157l.2.475A7.153,7.153,0,0,1,25.9,14.28l-.134.134,1.164,1.164.134-.134a8.8,8.8,0,0,0,1.866-9.686l-.2-.475A7.059,7.059,0,0,0,22.233,1H20.9l.6,1.191a2.981,2.981,0,0,1-1.243,3.965l-1.783.973A8.577,8.577,0,0,0,15.987,20.15Z" transform="translate(-2.297 -0.046)"/><path class="a" d="M22.647,36.242v1.509h1.647V36.242a3.461,3.461,0,0,1,1.02-2.463,7.761,7.761,0,0,0-1.182-11.946,3.324,3.324,0,0,1-1.484-2.772,3.772,3.772,0,0,1,1.1-2.649L25.7,14.457l-1.164-1.164-1.955,1.955A5.428,5.428,0,0,0,21,19.061,4.967,4.967,0,0,0,23.217,23.2a6.115,6.115,0,0,1,.932,9.411,5.1,5.1,0,0,0-1.5,3.628Z" transform="translate(-3.534 -2.218)"/><path class="a" d="M19.76,31.4l-1.287-1.029-1.75,2.188a7.868,7.868,0,0,0,0,9.827l1.75,2.188,1.287-1.029-1.75-2.188a6.217,6.217,0,0,1,0-7.769Z" transform="translate(-2.474 -5.236)"/><path class="a" d="M13.673,29.485l1.473-.737A6.743,6.743,0,0,0,9.081,25H7l.988,1.318A8.393,8.393,0,0,1,9.5,32.992l-.653,3.263a10.5,10.5,0,0,0-.2,2.048,10.38,10.38,0,0,0,3.06,7.388l.474.474L13.345,45l-.474-.474a8.807,8.807,0,0,1-2.407-7.95l.653-3.261a10.044,10.044,0,0,0-.911-6.546,5.1,5.1,0,0,1,3.468,2.715Z" transform="translate(-1.06 -4.286)"/><path class="a" d="M40.709,27.442a5.149,5.149,0,0,0-2.3-4.293,3.648,3.648,0,0,1-1.358-4.373l.961-2.407-3.4,1.135a6.973,6.973,0,0,0-4.581,4.948l1.6.4a5.339,5.339,0,0,1,3.506-3.786l.131-.044a5.31,5.31,0,0,0,2.234,5.5,3.516,3.516,0,0,1,.969,4.88,4.788,4.788,0,0,0-2.065-2,6.016,6.016,0,0,0-2.675-.631H31.021l1.422,2.369a3.646,3.646,0,0,1-.549,4.459l1.164,1.164a5.29,5.29,0,0,0,.873-6.34,4.346,4.346,0,0,1,1.736.453,3.164,3.164,0,0,1,.822,5.068l-.478.478,1.164,1.164.478-.478a4.78,4.78,0,0,0,1.41-3.4c0-.151-.017-.3-.031-.449l.166-.163a5.127,5.127,0,0,0,1.512-3.649Z" transform="translate(-5.129 -2.761)"/><path class="a" d="M39.7,9.806a4.008,4.008,0,0,0,2.423,4.1A4.545,4.545,0,0,1,43.549,21.3l-.9.9,1.164,1.164.9-.9a6.19,6.19,0,0,0-1.94-10.068A2.373,2.373,0,0,1,41.4,9.626l.465-1.862-2.118.352A5.665,5.665,0,0,0,35,13.722h1.647A4.023,4.023,0,0,1,39.7,9.806Z" transform="translate(-6.007 -1.241)"/><path class="a" d="M52.394,41.435l-.22.147a6.961,6.961,0,0,0-2.9,4.113l-.246.985,1.6.4.246-.985a5.323,5.323,0,0,1,2.216-3.142l.22-.147A6.961,6.961,0,0,0,56.415,37H54.768a5.318,5.318,0,0,1-2.374,4.435Z" transform="translate(-8.486 -6.406)"/><path class="a" d="M2.647,22.081V20H1v2.081a6.742,6.742,0,0,0,3.749,6.065l.737-1.473a5.105,5.105,0,0,1-2.839-4.592Z" transform="translate(0 -3.403)"/><path class="a" d="M60.058,19.876l-.273,2.187a6.7,6.7,0,0,1-4.155,5.384l.611,1.529a8.341,8.341,0,0,0,5.178-6.708l.273-2.187Z" transform="translate(-9.652 -3.381)"/><path class="a" d="M50.435,34.316l1.6-.4A5.161,5.161,0,0,0,47.015,30H44.96l.79,1.577a3.216,3.216,0,0,1-.864,3.928,5.029,5.029,0,0,0-1.042,6.714l.941,1.411,1.37-.913-.941-1.411a3.382,3.382,0,0,1,.7-4.515,4.878,4.878,0,0,0,1.633-5.1,3.521,3.521,0,0,1,2.886,2.629Z" transform="translate(-7.421 -5.169)"/></g></svg>