<svg xmlns="http://www.w3.org/2000/svg" width="50.996" height="51.419" viewBox="0 0 50.996 51.419"><defs><style>.a{fill:#e2eaed;}</style></defs><g transform="translate(-1.991 0)"><g transform="translate(32.588 25.495)"><path class="a" d="M306.505,245.472a9.139,9.139,0,0,0-3.654-5.35.851.851,0,0,0-1.192.243l-1.474,2.29-1.474-2.289a.851.851,0,0,0-1.192-.243,9.493,9.493,0,0,0-3.94,6.686,3.4,3.4,0,0,0-3.016,2.945l-.571,4.566a.851.851,0,0,0,.375.815.862.862,0,0,0,.469.14.844.844,0,0,0,.429-.116l2.938-1.718a15.587,15.587,0,0,0,3.878,5.693,5.1,5.1,0,0,0-3,4.641v.85a.85.85,0,0,0,1.165.79l3.934-1.574,3.934,1.574a.842.842,0,0,0,.315.06.85.85,0,0,0,.85-.85v-.85a5.1,5.1,0,0,0-3-4.641,15.412,15.412,0,0,0,3.031-3.891L309.2,256.9a.815.815,0,0,0,.334.07.849.849,0,0,0,.85-.85v-5.1A5.958,5.958,0,0,0,306.505,245.472Zm-14.613,7.349.358-2.857a1.7,1.7,0,0,1,1.152-1.4c-.01.257-.016.512-.016.763a18.037,18.037,0,0,0,.176,2.522Zm11.668,10.537-3.06-1.223a.827.827,0,0,0-.315-.061.842.842,0,0,0-.315.06l-3.06,1.223a3.4,3.4,0,0,1,6.75,0Zm1.661-13.034c-.008.065-.02.13-.03.195s-.017.107-.025.161c-.033.216-.073.433-.122.65-.008.037-.019.075-.027.112-.025.1-.051.209-.079.313-.057.208-.122.416-.193.626-.044.13-.086.262-.134.389,0,.005,0,.009-.006.014-.1.274-.224.547-.353.821-.045.1-.093.189-.14.282-.07.139-.139.277-.212.411-.059.108-.12.212-.181.316-.076.131-.151.261-.23.387-.063.1-.127.2-.19.294-.08.122-.161.243-.242.36-.065.093-.13.182-.2.271-.082.113-.166.224-.248.331-.065.084-.131.166-.2.246-.083.1-.166.2-.248.3-.065.076-.128.148-.191.219-.082.092-.163.181-.242.266-.061.065-.122.128-.181.19-.079.081-.156.159-.232.232-.056.054-.111.108-.166.158-.073.068-.144.132-.212.192-.051.045-.1.089-.15.13-.064.054-.124.1-.183.147s-.089.07-.131.1-.1.071-.15.1-.073.048-.1.066-.03.014-.046.023c-1.1-.595-5.094-4.573-5.094-9.3,0-.448.03-.915.069-1.382a8.646,8.646,0,0,1,2.63-5.877l1.686,2.619a.883.883,0,0,0,1.43,0l1.686-2.619a8.662,8.662,0,0,1,2.635,5.924c.037.445.064.894.064,1.335A8.645,8.645,0,0,1,305.221,250.324Zm3.463,4.511-2.614-1.12a11.459,11.459,0,0,0,.915-4.39c0-.305-.009-.609-.025-.905-.006-.109-.016-.212-.024-.32-.01-.139-.017-.286-.031-.416,0-.026,0-.063-.005-.089l0-.026a4.257,4.257,0,0,1,1.787,3.456Z" transform="translate(-289.985 -239.974)"/></g><g transform="translate(44.488 31.446)"><rect class="a" width="1.7" height="1.7"/></g><g transform="translate(2.696 0)"><path class="a" d="M49.569,17.1V14.291a2.546,2.546,0,0,0,1.7-2.393V10.2a2.546,2.546,0,0,0-1.7-2.393V.848a.842.842,0,0,0-1.3-.711l0-.006L20.952,17.51a4.156,4.156,0,0,0-4.321.195l-1.558-1.558,1.1-1.1-1.2-1.2-3.4,3.4,1.2,1.2,1.1-1.1,1.558,1.558a4.194,4.194,0,0,0,.142,4.863v5.624l-6.2,6.2a2.552,2.552,0,0,0,0,3.605l1,1a2.553,2.553,0,0,0,3.605,0l6.448-6.448a.849.849,0,0,0,0-1.2l-1.1-1.1L47.869,2.9V7.8a2.546,2.546,0,0,0-1.7,2.393v1.7a2.546,2.546,0,0,0,1.7,2.393v3.556a.849.849,0,0,0,.85.85,1.7,1.7,0,1,1-1.7,1.7h-1.7a3.4,3.4,0,1,0,4.25-3.292Zm-32.892,3.05,1.693,1.693,1.2-1.2-1.693-1.693a2.49,2.49,0,0,1,2.572.226c.006,0,.01.011.016.015a2.667,2.667,0,0,1,.416.383c.022.025.043.052.065.078a2.514,2.514,0,0,1,.245.363c.025.046.053.091.076.139a2.437,2.437,0,0,1,.139.377c.015.052.036.1.048.154A2.533,2.533,0,0,1,18.971,23.8a2.483,2.483,0,0,1-.53-.057c-.028-.006-.053-.018-.08-.025a2.439,2.439,0,0,1-.428-.144l-.028-.015a2.6,2.6,0,0,1-.844-.642L17.05,22.9a2.485,2.485,0,0,1-.373-2.75Zm-3.9,18.838a.849.849,0,0,1-1.2,0l-1-1a.851.851,0,0,1,0-1.2l5.847-5.847,2.2,2.2Zm5.349-8.748-.85-.85V25.136a4.207,4.207,0,0,0,1.7.36,4.254,4.254,0,0,0,4.25-4.25,4.2,4.2,0,0,0-.078-.773c-.02-.11-.054-.213-.082-.32a4.065,4.065,0,0,0-.124-.4c-.048-.127-.1-.248-.163-.369-.049-.1-.1-.2-.158-.29-.076-.127-.153-.25-.241-.368-.018-.025-.031-.052-.05-.076L42.643,5.722Zm30.6-17.5a.85.85,0,0,1-.85-.85V10.2a.85.85,0,0,1,1.7,0v1.7A.85.85,0,0,1,48.719,12.747Z" transform="translate(-8.627 0)"/></g><g transform="translate(49.587 45.895)"><path class="a" d="M451.691,431.982a1.7,1.7,0,0,1-1.7,1.7v1.7a3.4,3.4,0,0,0,3.4-3.4Z" transform="translate(-449.991 -431.982)"/></g><g transform="translate(32.589 45.895)"><path class="a" d="M291.691,431.982h-1.7a3.4,3.4,0,0,0,3.4,3.4v-1.7A1.7,1.7,0,0,1,291.691,431.982Z" transform="translate(-289.991 -431.982)"/></g><g transform="translate(20.69 48.869)"><path class="a" d="M185.513,460.528a3.417,3.417,0,0,0-3.707,0,1.733,1.733,0,0,1-1.959,0,3.25,3.25,0,0,0-1.855-.547v1.7a1.579,1.579,0,0,1,.98.3,3.422,3.422,0,0,0,3.71,0,1.729,1.729,0,0,1,1.957,0,3.244,3.244,0,0,0,1.853.546v-1.7A1.575,1.575,0,0,1,185.513,460.528Z" transform="translate(-177.991 -459.982)"/></g><g transform="translate(10.49 43.77)"><path class="a" d="M89.513,412.528a3.417,3.417,0,0,0-3.707,0,1.733,1.733,0,0,1-1.959,0,3.25,3.25,0,0,0-1.855-.547v1.7a1.579,1.579,0,0,1,.98.3,3.421,3.421,0,0,0,3.71,0,1.729,1.729,0,0,1,1.957,0,3.245,3.245,0,0,0,1.853.547v-1.7A1.575,1.575,0,0,1,89.513,412.528Z" transform="translate(-81.991 -411.982)"/></g><g transform="translate(22.389 38.67)"><path class="a" d="M201.513,364.529a3.417,3.417,0,0,0-3.707,0,1.733,1.733,0,0,1-1.959,0,3.25,3.25,0,0,0-1.855-.547v1.7a1.579,1.579,0,0,1,.98.3,3.421,3.421,0,0,0,3.71,0,1.729,1.729,0,0,1,1.957,0,3.245,3.245,0,0,0,1.853.547v-1.7A1.575,1.575,0,0,1,201.513,364.529Z" transform="translate(-193.991 -363.982)"/></g><g transform="translate(1.991 48.869)"><path class="a" d="M9.513,460.528a3.245,3.245,0,0,0-1.853-.547,3.249,3.249,0,0,0-1.855.547,1.579,1.579,0,0,1-.98.3,1.578,1.578,0,0,1-.979-.3,3.25,3.25,0,0,0-1.855-.547v1.7a1.579,1.579,0,0,1,.98.3,3.247,3.247,0,0,0,1.855.546,3.25,3.25,0,0,0,1.855-.546,1.578,1.578,0,0,1,.979-.3,1.575,1.575,0,0,1,.977.3,3.245,3.245,0,0,0,1.853.546v-1.7A1.575,1.575,0,0,1,9.513,460.528Z" transform="translate(-1.991 -459.982)"/></g></g></svg>