<svg id="Layer_1" data-name="Layer 1" xmlns="http://www.w3.org/2000/svg" viewBox="0 0 113.39 113.39"><defs><style>.cls-1{fill:#010101;}</style></defs><path class="cls-1" d="M62.85,88.24a4.07,4.07,0,0,1-1.48-.86,1,1,0,0,1-.38-.74.78.78,0,0,1,.24-.57A.77.77,0,0,1,62.28,86a4.64,4.64,0,0,0,1.1.68,3.48,3.48,0,0,0,1.27.21A2.49,2.49,0,0,0,66,86.52a1,1,0,0,0,.57-.87,1.13,1.13,0,0,0-.56-1,4.81,4.81,0,0,0-1.79-.54q-3.09-.45-3.09-2.88a2.6,2.6,0,0,1,.47-1.54,3,3,0,0,1,1.27-1,4.45,4.45,0,0,1,1.78-.34,5.08,5.08,0,0,1,1.67.27,3.83,3.83,0,0,1,1.3.7.92.92,0,0,1,.41.75.81.81,0,0,1-.24.57.76.76,0,0,1-.56.24.64.64,0,0,1-.38-.12,3.67,3.67,0,0,0-1-.55A3.49,3.49,0,0,0,64.66,80a2.41,2.41,0,0,0-1.37.33,1.06,1.06,0,0,0,0,1.78,4.94,4.94,0,0,0,1.57.51,8.1,8.1,0,0,1,1.94.54,2.46,2.46,0,0,1,1.09.9,2.7,2.7,0,0,1,.37,1.51,2.57,2.57,0,0,1-.5,1.56,3.34,3.34,0,0,1-1.33,1,4.47,4.47,0,0,1-1.79.36A5.79,5.79,0,0,1,62.85,88.24Z"/><path class="cls-1" d="M75.32,78.93a3.13,3.13,0,0,1,1,1.15,3.21,3.21,0,0,1,.4,1.59,3.37,3.37,0,0,1-1.44,2.74,2.44,2.44,0,0,1-1.36.42H71.51V87.5a.88.88,0,0,1-.23.62.78.78,0,0,1-.59.24.76.76,0,0,1-.58-.25.88.88,0,0,1-.22-.61V79.36a.84.84,0,0,1,.86-.86H74A2.38,2.38,0,0,1,75.32,78.93ZM74.48,83a1.6,1.6,0,0,0,.43-.58,1.86,1.86,0,0,0,0-1.51,1.48,1.48,0,0,0-.43-.57.79.79,0,0,0-.52-.22H71.51v3.11H74A.81.81,0,0,0,74.48,83Z"/><path class="cls-1" d="M86.83,86a4.82,4.82,0,0,1-1.71,1.84,4.79,4.79,0,0,1-4.92,0A4.64,4.64,0,0,1,78.5,86a5.34,5.34,0,0,1-.62-2.55,5.41,5.41,0,0,1,.62-2.56A4.71,4.71,0,0,1,80.2,79a4.85,4.85,0,0,1,4.92,0,4.89,4.89,0,0,1,1.71,1.84,5.41,5.41,0,0,1,.62,2.56A5.34,5.34,0,0,1,86.83,86Zm-1.6-4.26a3,3,0,0,0-1-1.22,2.69,2.69,0,0,0-1.52-.45,2.77,2.77,0,0,0-1.53.44,3,3,0,0,0-1,1.22,3.91,3.91,0,0,0-.38,1.72,3.84,3.84,0,0,0,.38,1.71,2.9,2.9,0,0,0,1,1.22,2.81,2.81,0,0,0,3.05,0,3,3,0,0,0,1-1.22,4,4,0,0,0,0-3.42Z"/><path class="cls-1" d="M95.88,78.72a.78.78,0,0,1,.24.6.75.75,0,0,1-.24.58.87.87,0,0,1-.62.22H93.05V87.5a.8.8,0,0,1-.27.61,1,1,0,0,1-.66.25.92.92,0,0,1-.65-.25.82.82,0,0,1-.25-.61V80.12H89a.88.88,0,0,1-.62-.23.76.76,0,0,1-.24-.59.74.74,0,0,1,.25-.58A.85.85,0,0,1,89,78.5h6.25A.87.87,0,0,1,95.88,78.72Z"/><path class="cls-1" d="M23.56,83H21.25a.84.84,0,0,0-.86.85.82.82,0,0,0,.25.6.84.84,0,0,0,.61.24h1.33v1.83a4.83,4.83,0,0,1-.79.19,6.48,6.48,0,0,1-.85.07,3.22,3.22,0,0,1-1.66-.46,3.45,3.45,0,0,1-1.2-1.23,3.41,3.41,0,0,1,1.2-4.61,3.12,3.12,0,0,1,1.66-.46,4.09,4.09,0,0,1,1.58.32,1.07,1.07,0,0,0,.47.11.73.73,0,0,0,.57-.26.89.89,0,0,0,.23-.61.77.77,0,0,0-.11-.39.75.75,0,0,0-.31-.3,5.36,5.36,0,0,0-5,.12,5.13,5.13,0,0,0-1.88,1.85,5,5,0,0,0,0,5.08,5.11,5.11,0,0,0,1.88,1.84,5,5,0,0,0,2.57.69,5.65,5.65,0,0,0,3-.86.85.85,0,0,0,.44-.76v-3a.84.84,0,0,0-.24-.61A.79.79,0,0,0,23.56,83Z"/><path class="cls-1" d="M55.42,80.93A4.18,4.18,0,0,0,54,79.15a4,4,0,0,0-2.28-.65H48.33a.84.84,0,0,0-.86.86v4.11l-.08.08-.47.44a6.12,6.12,0,0,1-.48.41c-.17.13-.33.28-.51.4l-.31.21a5.49,5.49,0,0,0,.23-1.58,5.3,5.3,0,0,0-.62-2.56A4.74,4.74,0,0,0,43.52,79a4.59,4.59,0,0,0-2.46-.67,4.53,4.53,0,0,0-2.45.67,4.74,4.74,0,0,0-1.71,1.84,5.52,5.52,0,0,0-.61,2.56c0,.17,0,.33,0,.49l-.07.07a6.26,6.26,0,0,1-.49.41c-.17.13-.33.28-.5.4L35,85a1.89,1.89,0,0,0,0-.23v0a5.68,5.68,0,0,0,.16-1.32,5.41,5.41,0,0,0-.62-2.56A4.84,4.84,0,0,0,32.83,79a4.53,4.53,0,0,0-2.45-.67,4.58,4.58,0,0,0-2.45.67,4.71,4.71,0,0,0-1.7,1.84,5.4,5.4,0,0,0-.61,2.56A5.34,5.34,0,0,0,26.23,86a4.61,4.61,0,0,0,4.15,2.52,4.55,4.55,0,0,0,.53,0l.27,0,.46-.1h.06l.06,0c.21,0,.42-.12.63-.19a11.3,11.3,0,0,0,1.35-.56A12.87,12.87,0,0,0,36.18,86c.19-.14.35-.3.53-.45.06.14.12.28.19.42a4.67,4.67,0,0,0,1.71,1.84,4.54,4.54,0,0,0,2.45.68,4.06,4.06,0,0,0,.51,0,4.21,4.21,0,0,0,.71-.12l.07,0,.08,0a6.55,6.55,0,0,0,.63-.19,10.08,10.08,0,0,0,1.35-.56A13,13,0,0,0,46.86,86c.19-.15.36-.31.54-.47l.07-.06v2a.82.82,0,0,0,.25.61.85.85,0,0,0,.61.25h3.36A3.88,3.88,0,0,0,54,87.7a4.21,4.21,0,0,0,1.45-1.77,6.5,6.5,0,0,0,0-5ZM33,85.14a3.15,3.15,0,0,1-1.06,1.22,2.68,2.68,0,0,1-.33.18l-.26.1-.15.06h-.08a1.91,1.91,0,0,1-.36.07h0a2,2,0,0,1-.34,0h0a2.67,2.67,0,0,1-1.53-.45,2.9,2.9,0,0,1-1-1.22,3.84,3.84,0,0,1-.38-1.71,3.91,3.91,0,0,1,.38-1.72,3,3,0,0,1,1-1.22,2.74,2.74,0,0,1,1.53-.44h0a2.69,2.69,0,0,1,1.52.45A3.08,3.08,0,0,1,33,81.72a4,4,0,0,1,0,3.42Zm10.67,0a3,3,0,0,1-1,1.22,2.21,2.21,0,0,1-.34.18,2.45,2.45,0,0,1-.85.24,1.87,1.87,0,0,1-.34,0,2.64,2.64,0,0,1-1.52-.45,2.92,2.92,0,0,1-1-1.22,3.9,3.9,0,0,1-.32-1.1,4.06,4.06,0,0,1,.32-2.33,3.09,3.09,0,0,1,.39-.6,2.78,2.78,0,0,1,.66-.62,2.84,2.84,0,0,1,3.05,0,3,3,0,0,1,1,1.22,4,4,0,0,1,0,3.42Zm9.82.66a2.17,2.17,0,0,1-1.91.94H49.23V80.12h2.32a2.16,2.16,0,0,1,1.9.93,4.76,4.76,0,0,1,0,4.75Z"/><path class="cls-1" d="M90.12,95.72l-.56-.25a.11.11,0,0,1-.07-.08l-.26-.55a.16.16,0,0,0-.29,0l-.25.55s0,.07-.08.08l-.55.25a.16.16,0,0,0,0,.29l.55.26s.06,0,.08.08l.25.55a.16.16,0,0,0,.29,0l.26-.55a.11.11,0,0,1,.07-.08l.56-.26A.16.16,0,0,0,90.12,95.72Z"/><path class="cls-1" d="M93.17,95.72l-.56-.25a.15.15,0,0,1-.08-.08l-.25-.55a.16.16,0,0,0-.29,0l-.25.55a.15.15,0,0,1-.08.08l-.56.25a.16.16,0,0,0,0,.29l.56.26a.15.15,0,0,1,.08.08l.25.55a.16.16,0,0,0,.29,0l.25-.55a.15.15,0,0,1,.08-.08l.56-.26A.16.16,0,0,0,93.17,95.72Z"/><path class="cls-1" d="M96.21,95.72l-.55-.25s-.06,0-.08-.08l-.25-.55a.16.16,0,0,0-.29,0l-.26.55a.11.11,0,0,1-.08.08l-.55.25a.16.16,0,0,0,0,.29l.55.26a.11.11,0,0,1,.08.08l.26.55a.16.16,0,0,0,.29,0l.25-.55s0-.07.08-.08l.55-.26A.16.16,0,0,0,96.21,95.72Z"/><path class="cls-1" d="M38.07,29.18a21.92,21.92,0,0,1,2.1-2.52l.16-.17a21.6,21.6,0,0,1,1.82-1.63l.18-.14a19.91,19.91,0,0,1,2.74-1.8l.18-.1a19.63,19.63,0,0,1,2.33-1.07c.4-.15.82-.28,1.23-.4l.25-.09a22.2,22.2,0,0,1,4.35-.79l.36,0,.35,0H55.8c.56,0,1.12.11,1.68.16a17,17,0,0,1,3.3.67A19.76,19.76,0,0,1,64.94,23c.17.09.34.17.5.27a21.43,21.43,0,0,1,1.78,1.21l.29.22c.37.29.73.58,1.08.89l.21.19c.34.32.68.64,1,1L70,27a19,19,0,0,1,1.63,1.94h0L74.31,27l.07,0-.18-.23c-.28-.39-.58-.78-.88-1.15l-.24-.29-.76-.83-.24-.26c-.28-.3-.58-.58-.88-.86l-.27-.25-.65-.59h0l-.07-.06L70,22.22h0a23.68,23.68,0,0,0-8.15-4.42A20.45,20.45,0,0,0,58,17c-.65-.07-1.3-.18-2-.21l-2,0a25.11,25.11,0,0,0-7.76,1.48,24.36,24.36,0,0,0-15.94,25A24.21,24.21,0,0,0,32.26,51a25.72,25.72,0,0,0,4.35,6.7,24.8,24.8,0,0,0,37.3-.75l.16,6.3,5-.13-.33-12.77-.06-2.6-.88.06-.81.05-.8.06-10.32.71-.24,0-3.17.21-.24,0L59.88,49l.06,3.24v.16l.55,0,10.42.3c-.27.37-.55.72-.83,1.07l-.3.35c-.36.41-.73.82-1.12,1.2a3.07,3.07,0,0,1-.26.25,20.35,20.35,0,0,1-2.22,1.83c-.1.07-.18.14-.28.2A18.15,18.15,0,0,1,64,58.81c-.33.18-.68.33-1,.49l-.35.17a20.14,20.14,0,0,1-11.35,1.38c-.69-.13-1.38-.29-2.06-.49a20.65,20.65,0,0,1-3.71-1.44,19.32,19.32,0,0,1-5.63-4.21A20.35,20.35,0,0,1,34.7,44.37c0-.15,0-.31-.06-.47,0-.35-.11-.7-.14-1a19.69,19.69,0,0,1-.08-3.07,2.71,2.71,0,0,0,0-.29,20.85,20.85,0,0,1,.7-4l.09-.32a21.26,21.26,0,0,1,2.21-5.08c.16-.25.34-.49.51-.73Z"/><path d="M68.51,54.07a8.13,8.13,0,0,1-1.3.1A10,10,0,0,1,64,53.6c-1-.35-2.06-.78-3.11-1.15l-.31-.1h-.48v-.15l-.07,0a2.31,2.31,0,0,0-.64-.1l-.25,0a8.24,8.24,0,0,0-3.33.8c-.69.31-1.35.65-2,1a6.59,6.59,0,0,1-2.36.64h-.24a3.55,3.55,0,0,1-3.58-2.81,4.29,4.29,0,0,1-.18-1.22,4.85,4.85,0,0,1,.15-1.19,6.89,6.89,0,0,1,1.88-3.41c1.11-1,2.27-2,3.42-3a12,12,0,0,0,2.71-3,10.94,10.94,0,0,0,1-2.63,21.24,21.24,0,0,0,.78-5.14v-.32a17.51,17.51,0,0,0-.78-4.93c-.25-.83-.51-1.65-.71-2.49a2.18,2.18,0,0,1-.07-.52,1.68,1.68,0,0,1,0-.4,1.51,1.51,0,0,1,1.51-1.29,1.84,1.84,0,0,1,.39,0c1.5.27,3,.56,4.48.86a18.55,18.55,0,0,0,3.24.34h.36l-.31-.18-.5-.28h0a19.46,19.46,0,0,1-2.75-.32c-1.5-.28-3-.58-4.49-.85a2,2,0,0,0-.34,0,1.81,1.81,0,0,0-.52.07,2.13,2.13,0,0,0-1.54,2,2.1,2.1,0,0,0,0,.43c.17.76.4,1.51.63,2.26a17.81,17.81,0,0,1,.9,5.26c0,.12,0,.25,0,.37A22.8,22.8,0,0,1,56,37.57,8.72,8.72,0,0,1,53.14,42c-1,.87-2.07,1.74-3.09,2.63a8.8,8.8,0,0,0-2.52,3.26,6.75,6.75,0,0,0-.6,2.59,4.26,4.26,0,0,0,.17,1.21,4.1,4.1,0,0,0,4,3.25,5.75,5.75,0,0,0,1.23-.15,12.71,12.71,0,0,0,2.81-1.13,10.62,10.62,0,0,1,2.44-.94A6.72,6.72,0,0,1,59,52.52a4,4,0,0,1,1.54.3c.87.35,1.75.66,2.62,1A11.69,11.69,0,0,0,67,54.6h.26a9.91,9.91,0,0,0,2.54-.35h0l0,0,.29-.34.21-.25-.31.09A12.34,12.34,0,0,1,68.51,54.07Z"/><path d="M60.9,25.56A1.92,1.92,0,0,0,59.78,27a17.21,17.21,0,0,0-.19,1.76c0,.24,0,.47,0,.7,0,1.25.14,2.49.24,3.72q.07,1,.24,1.92a13.73,13.73,0,0,0,1.3,3.74,14.59,14.59,0,0,1,1.19,3.23,8.87,8.87,0,0,1,.26,1.82,4.77,4.77,0,0,1-.07.76c-.18.9-.34,1.81-.49,2.71a6.72,6.72,0,0,0-.15,1.12,2.53,2.53,0,0,0,0,.38l0,.09.32,0h.12l0-.11a1.84,1.84,0,0,1,0-.33,6.3,6.3,0,0,1,.16-1.12c.15-.88.32-1.76.47-2.65a5.69,5.69,0,0,0,.08-.91,7.87,7.87,0,0,0-.38-2.26c-.25-.82-.61-1.6-.92-2.38-.42-1.08-.89-2.15-1.24-3.24a10.41,10.41,0,0,1-.35-2c-.12-1-.24-2.07-.28-3.1,0-.25,0-.5,0-.76,0-.71,0-1.42.05-2.14a4.38,4.38,0,0,1,0-.51,1.68,1.68,0,0,1,1.12-1.54A8.39,8.39,0,0,1,63,25.4c1.51-.22,3-.41,4.53-.59l.25,0-.2-.15-.29-.22,0,0h0c-1.4.16-2.8.36-4.2.55A6.57,6.57,0,0,0,60.9,25.56Z"/><path d="M68.34,55.31a1.27,1.27,0,0,1-.28,0h-.53a19.83,19.83,0,0,1-5.12-.87c-.79-.23-1.58-.42-2.38-.58a5.14,5.14,0,0,0-1-.1,7.5,7.5,0,0,0-2.29.4c-1.28.42-2.55.9-3.82,1.33a5.87,5.87,0,0,1-1.86.32,5.21,5.21,0,0,1-2.62-.72A4.78,4.78,0,0,1,46.59,53,5.69,5.69,0,0,1,46,50.36a7.76,7.76,0,0,1,.49-2.6,7.92,7.92,0,0,1,1.89-2.91c.81-.83,1.65-1.64,2.45-2.48a20.3,20.3,0,0,0,2.88-3.7,15.59,15.59,0,0,0,1.88-5.4,11.51,11.51,0,0,0,.13-1.74,12.42,12.42,0,0,0-1.22-5.25c-.34-.72-.7-1.43-1-2.16A6.84,6.84,0,0,1,53,22.87a2.64,2.64,0,0,1-.06-.55,2.3,2.3,0,0,1,.88-1.8l.25-.2-.31,0-.37,0h0l0,0a2.61,2.61,0,0,0-.66,1,3.27,3.27,0,0,0-.16,1,3.38,3.38,0,0,0,.29,1.35c.34.79.72,1.57,1.1,2.35a12.25,12.25,0,0,1,1.33,5.42,11.31,11.31,0,0,1-.14,1.73A14.62,14.62,0,0,1,53.56,38a16.61,16.61,0,0,1-2.81,3.81c-.89.92-1.8,1.83-2.7,2.75a8.53,8.53,0,0,0-2.25,3.86,7.32,7.32,0,0,0-.28,2,6.2,6.2,0,0,0,.09,1,6.69,6.69,0,0,0,1.3,2.91,5.1,5.1,0,0,0,4.32,1.95,6.32,6.32,0,0,0,2.06-.43c1.19-.43,2.37-.86,3.57-1.25A7.32,7.32,0,0,1,59,54.2a4.34,4.34,0,0,1,1,.11c.88.19,1.75.41,2.61.65a20,20,0,0,0,4.49.81h.08c.38,0,.79,0,1.21-.06h0l.29-.26.24-.23-.32,0Z"/><path d="M64.61,26.88a3.79,3.79,0,0,0-2,3,8,8,0,0,0-.09,1.29,12,12,0,0,0,.27,2.46c.23,1.18.59,2.32.92,3.47s.69,2.14,1,3.22a17.41,17.41,0,0,1,.72,5.12c0,.23,0,.46,0,.7h0c0,.38,0,.77,0,1.16a5.78,5.78,0,0,0,0,.72,4.14,4.14,0,0,0,.11.63l0,.08.31,0H66l0-.12a2.54,2.54,0,0,1-.1-.55c0-.23,0-.46,0-.7s0-.78,0-1.17c0-.22,0-.45,0-.67a17.07,17.07,0,0,0-.54-4.55c-.29-1.08-.66-2.12-1-3.18-.39-1.35-.81-2.68-1.11-4a11.36,11.36,0,0,1-.31-2.52A8.81,8.81,0,0,1,63,29.84a3.2,3.2,0,0,1,1.66-2.51,11.16,11.16,0,0,1,2.42-1c.56-.15,1.13-.3,1.7-.43l.19,0-.35-.32,0,0-.28.07,0,.09,0-.09A15.36,15.36,0,0,0,64.61,26.88Z"/><path d="M64.44,57c-1.29-.24-2.56-.57-3.88-.71a11.41,11.41,0,0,0-1.16-.06,10.59,10.59,0,0,0-2.38.27c-1,.22-2,.52-2.91.8a11.54,11.54,0,0,1-3.31.59,6.27,6.27,0,0,1-1.14-.1,6.08,6.08,0,0,1-4-2.24,10.32,10.32,0,0,1-2.32-6.37q0-.33,0-.66a6.19,6.19,0,0,1,.89-2.9,10.56,10.56,0,0,1,1.59-1.89c1.14-1.18,2.3-2.35,3.4-3.58a15.27,15.27,0,0,0,3.06-5.14,11.11,11.11,0,0,0,.62-2.59c0-.31,0-.61,0-.91a8.69,8.69,0,0,0-1.4-4.76c-.62-1-1.21-2-1.81-3a3.9,3.9,0,0,1-.65-2v-.16c0-.12,0-.23,0-.34l0-.16-.4.13-.06,0v.06a3.17,3.17,0,0,0,0,.43,4.06,4.06,0,0,0,.58,2.06C49.9,24.9,50.55,26,51.21,27a8.28,8.28,0,0,1,1.32,4.47,9.2,9.2,0,0,1-.06,1,12.06,12.06,0,0,1-1.63,4.74,25.63,25.63,0,0,1-3.33,4.23c-.86.92-1.79,1.77-2.68,2.68a6.89,6.89,0,0,0-1.95,5A10.93,10.93,0,0,0,43,50.57a11.52,11.52,0,0,0,1.35,3.83,7.08,7.08,0,0,0,3.13,3.18,7.59,7.59,0,0,0,3.38.8,8.42,8.42,0,0,0,2.1-.28c1.08-.28,2.14-.6,3.2-.9a11.51,11.51,0,0,1,3.22-.51,7.57,7.57,0,0,1,.95.06c1.23.14,2.45.39,3.67.64.64.13,1.28.25,1.93.35h0l0,0,.27-.19.21-.15-.25,0C65.61,57.25,65,57.14,64.44,57Z"/><path d="M40.15,37.11a7.47,7.47,0,0,0,3.43-2.86,3.41,3.41,0,0,0,.59-1.86v-.16A5.25,5.25,0,0,0,42.91,29c-.35-.4-.7-.78-1.07-1.15L40.4,26.42l-.07-.07-.23.24-.07.07.07.07c.67.69,1.38,1.35,2,2a5,5,0,0,1,1.54,3.47c0,.13,0,.25,0,.38A2.83,2.83,0,0,1,43.22,34a6.94,6.94,0,0,1-3.36,2.83c-.87.33-1.75.66-2.6,1a16.46,16.46,0,0,0-2.11,1c-.27.17-.53.36-.78.54l0,0v0c0,.1,0,.2,0,.29l0,.22.18-.14a10.22,10.22,0,0,1,2.59-1.49C38.11,38,39.13,37.54,40.15,37.11Z"/><path d="M78.87,43.34a8.08,8.08,0,0,1-3.12,1.35,4,4,0,0,1-.86.09c-.6-.1-1.19-.17-1.77-.3A3.5,3.5,0,0,1,71,43a10,10,0,0,1-1.35-3,15.92,15.92,0,0,1-.73-4.43c0-.13,0-.26,0-.39a16.15,16.15,0,0,1,.43-3.32,3.73,3.73,0,0,1,2.49-2.71,2.92,2.92,0,0,1,1-.17,4.07,4.07,0,0,1,1.24.2,8.32,8.32,0,0,1,1.74.73c.2.11.39.24.59.37l.3.19-.16-.32-.21-.42,0,0-.15-.1h0a7.13,7.13,0,0,0-2-.86,5.34,5.34,0,0,0-1.32-.2,2.61,2.61,0,0,0-.73.09,3.93,3.93,0,0,0-.41.14h0l-.06,0h0A4.08,4.08,0,0,0,68.86,32c-.17.8-.22,1.62-.35,2.41a5.51,5.51,0,0,0-.08,1c0,.65.09,1.3.15,1.93a14.85,14.85,0,0,0,.79,3.35,11.26,11.26,0,0,0,1,2.29,4.13,4.13,0,0,0,2.66,2c.61.15,1.23.2,1.84.3h0a3.54,3.54,0,0,0,.86-.09A9.22,9.22,0,0,0,79,43.82l0,0v0c0-.11,0-.22,0-.32l0-.23Z"/><path d="M61.8,59a12.7,12.7,0,0,0-2.3-.21c-.35,0-.69,0-1,0h0a19.64,19.64,0,0,0-3.32.63,17.08,17.08,0,0,1-4.35.73l-.74,0a8.9,8.9,0,0,1-7.25-4.5,35.41,35.41,0,0,1-2.37-4.78A13.11,13.11,0,0,1,39.25,47c0-.28,0-.54,0-.8a1.93,1.93,0,0,1,.29-1.11,5.15,5.15,0,0,1,1.23-1.36c1-.73,2-1.47,3-2.16A17.62,17.62,0,0,0,47,38.8a13.44,13.44,0,0,0,2.61-4.26,8.62,8.62,0,0,0,.43-3.1,5.21,5.21,0,0,0-.73-2.83c-.51-.85-1.07-1.66-1.65-2.47s-1.3-1.67-1.89-2.54a4,4,0,0,1-.44-.81l0-.11-.28.15-.08,0L45,23a5.23,5.23,0,0,0,.22.51,9.23,9.23,0,0,0,.54.84c.9,1.23,1.82,2.44,2.71,3.68a6.3,6.3,0,0,1,1.18,3.12,7.13,7.13,0,0,1-.31,3.08,12.46,12.46,0,0,1-1.75,3.25,12.06,12.06,0,0,1-3.08,3.09c-1.31.88-2.57,1.84-3.85,2.76a6.09,6.09,0,0,0-1.39,1.43,2.4,2.4,0,0,0-.48,1.47,8.45,8.45,0,0,0,.45,2.73,38.45,38.45,0,0,0,3.09,6.71A10.25,10.25,0,0,0,45.42,59h0a21.17,21.17,0,0,0,3.73,1.45h0l.63.08c.42,0,.85.06,1.27.06a6.89,6.89,0,0,0,1.56-.16c1.1-.24,2.19-.49,3.28-.77a14.44,14.44,0,0,1,3.56-.47,11.53,11.53,0,0,1,1.55.1c.52.07,1,.16,1.55.26h.06l.35-.17.28-.13L63,59.2Z"/><path d="M42.82,38.7a9.08,9.08,0,0,0,3.84-4.19,5.55,5.55,0,0,0,.52-2.31A5.4,5.4,0,0,0,47,31a7.06,7.06,0,0,0-1.83-3.33c-.92-1-1.85-2-2.8-3l-.06-.06-.25.19-.09.07.07.08c.75.77,1.5,1.55,2.23,2.34a15.55,15.55,0,0,1,1.24,1.45,5.72,5.72,0,0,1,1.2,3.39,5.5,5.5,0,0,1-.27,1.67,7.79,7.79,0,0,1-2.23,3.34,11,11,0,0,1-3.07,2c-1.13.52-2.28,1-3.41,1.55a6.41,6.41,0,0,0-3.22,3.23v0c0,.16,0,.32.06.48l.06.37.13-.35a5.91,5.91,0,0,1,2.87-3.24c.72-.37,1.46-.7,2.2-1.05C40.84,39.65,41.86,39.24,42.82,38.7Z"/><path d="M37,34.6A5.45,5.45,0,0,0,38.76,33h0a2.21,2.21,0,0,0,.4-1.33V31.4a3.73,3.73,0,0,0-.73-1.92c-.09-.13-.19-.24-.27-.36L38.07,29l-.22.31,0,.06.1.13a4.86,4.86,0,0,1,.67,1.3,2.84,2.84,0,0,1,.14.84,2.09,2.09,0,0,1-.65,1.51,5.88,5.88,0,0,1-1.35,1.08c-.52.28-1,.59-1.55.86l0,0v0l-.09.32-.06.23.21-.12C35.78,35.27,36.37,34.94,37,34.6Z"/><path d="M74.52,31.23a2.68,2.68,0,0,0-.62-.07A2.61,2.61,0,0,0,72,32a3.8,3.8,0,0,0-1,1.59,11.33,11.33,0,0,0-.53,3.25,8.51,8.51,0,0,0,.22,1.92,6.93,6.93,0,0,0,1.5,3.15,4.2,4.2,0,0,0,3.22,1.49,3.21,3.21,0,0,0,1.3-.34l-.28,0-.28,0L75.88,43v-.1H75.6a4.1,4.1,0,0,1-3.22-1.53,7.57,7.57,0,0,1-1.28-3.26v0l0,0a.67.67,0,0,1-.21-.49.7.7,0,0,1,.11-.37l0,0v0c0-.12,0-.23,0-.34a12,12,0,0,1,.4-2.85,3.65,3.65,0,0,1,.81-1.56,2.14,2.14,0,0,1,1.69-.83,2.44,2.44,0,0,1,.59.07,9.61,9.61,0,0,1,1.54.52l0,0,0,0,.24,0a.72.72,0,0,1,.32.08h.16c.06,0-.22-.17-.22-.17h0A7.46,7.46,0,0,0,74.52,31.23Z"/><path d="M77.12,46.28a15.1,15.1,0,0,1-3,.71,21,21,0,0,1-2.36.19h-.08A7.8,7.8,0,0,1,70.39,47,1.93,1.93,0,0,1,69,45.9,12.92,12.92,0,0,1,68.2,44C67.62,42,67,40,66.55,37.88a20.81,20.81,0,0,1-.7-4.86v-.28h0v-.24a9.33,9.33,0,0,1,.21-2,3.59,3.59,0,0,1,1.58-2.33A10,10,0,0,1,70,27.05l.15,0-.28-.31,0-.05-.06,0A9.43,9.43,0,0,0,67.18,28a3.73,3.73,0,0,0-1.55,2.47c-.13.77-.2,1.54-.29,2.31v0A22.59,22.59,0,0,0,66,37.47c.55,2.23,1.15,4.45,1.77,6.67a13.5,13.5,0,0,0,.77,1.94,2.45,2.45,0,0,0,1.78,1.37,8,8,0,0,0,1.68.17c.31,0,.62,0,.93,0a18,18,0,0,0,3.63-.65,10.86,10.86,0,0,0,2-.86l0,0v0c0-.1,0-.2,0-.29l0-.21-.18.11A10.73,10.73,0,0,1,77.12,46.28Z"/><path class="cls-1" d="M81.43,36.89l-2.74-1.25a.82.82,0,0,1-.39-.39l-1.19-2.59L77,32.51a.7.7,0,0,0-.29-.34l0,0a.82.82,0,0,0-.65,0,.77.77,0,0,0-.44.41l-1.25,2.74a.82.82,0,0,1-.39.39l-2.75,1.25a.73.73,0,0,0-.33.29.79.79,0,0,0,.11,1,.6.6,0,0,0,.22.16L74,39.58a.82.82,0,0,1,.39.39l1.25,2.75a.77.77,0,0,0,.27.32A.8.8,0,0,0,77,42.75v0L78.3,40a.82.82,0,0,1,.39-.39l2.74-1.25A.79.79,0,0,0,81.43,36.89Z"/><path class="cls-1" d="M16.81,94.48l.08,0a.18.18,0,0,1,.07,0L18,96.15h-.15l1.07-1.6a.17.17,0,0,1,.14-.07.16.16,0,0,1,.11,0,.13.13,0,0,1,0,.11v2.48a.13.13,0,0,1,0,.11.17.17,0,0,1-.24,0,.15.15,0,0,1,0-.11V95l.1,0-1,1.43a.1.1,0,0,1-.06,0,.08.08,0,0,1-.07,0,.1.1,0,0,1-.07,0s0,0-.06,0L16.87,95l.09-.11v2.26a.16.16,0,0,1-.05.11.13.13,0,0,1-.11,0,.12.12,0,0,1-.11,0,.16.16,0,0,1-.05-.11V94.64a.16.16,0,0,1,.05-.11A.17.17,0,0,1,16.81,94.48Z"/><path class="cls-1" d="M23.18,95.88a1.48,1.48,0,0,1-.1.57,1.42,1.42,0,0,1-.28.46,1.28,1.28,0,0,1-.43.3,1.24,1.24,0,0,1-.54.11,1.33,1.33,0,0,1-1-.41,1.42,1.42,0,0,1-.28-.46,1.7,1.7,0,0,1-.1-.57,1.8,1.8,0,0,1,.1-.57,1.67,1.67,0,0,1,.28-.46,1.19,1.19,0,0,1,.43-.3,1.33,1.33,0,0,1,.54-.11,1.41,1.41,0,0,1,.54.11,1.28,1.28,0,0,1,.43.3,1.67,1.67,0,0,1,.28.46A1.56,1.56,0,0,1,23.18,95.88Zm-.35,0a1.24,1.24,0,0,0-.13-.58.89.89,0,0,0-.35-.39.93.93,0,0,0-.52-.15.91.91,0,0,0-.52.15,1,1,0,0,0-.36.39,1.46,1.46,0,0,0,0,1.16,1.07,1.07,0,0,0,.36.4,1,1,0,0,0,.52.14,1,1,0,0,0,.52-.14,1,1,0,0,0,.35-.4A1.21,1.21,0,0,0,22.83,95.88Z"/><path class="cls-1" d="M25.62,94.48a.78.78,0,0,1,.55.18.73.73,0,0,1,.18.52.65.65,0,0,1-.31.56.74.74,0,0,1-.38.09v-.11a1.45,1.45,0,0,1,.29,0,.84.84,0,0,1,.27.13.66.66,0,0,1,.21.23.8.8,0,0,1,.08.36.86.86,0,0,1-.08.38.63.63,0,0,1-.2.25.72.72,0,0,1-.28.13,1.1,1.1,0,0,1-.31,0H24.58a.15.15,0,0,1-.12,0,.15.15,0,0,1,0-.11V94.65a.16.16,0,0,1,0-.12.18.18,0,0,1,.12,0Zm-.05.32h-.86l.05-.07v1l0,0h.86a.44.44,0,0,0,.3-.11.46.46,0,0,0,.13-.34.4.4,0,0,0-.12-.31A.4.4,0,0,0,25.57,94.8Zm0,1.19h-.87l0,0V97l0,0h.89a.6.6,0,0,0,.38-.12.44.44,0,0,0,.15-.37.51.51,0,0,0-.08-.3.41.41,0,0,0-.21-.15A.75.75,0,0,0,25.6,96Z"/><path class="cls-1" d="M28.07,97.12a.17.17,0,0,1-.16.16.17.17,0,0,1-.13,0,.15.15,0,0,1,0-.11V94.65a.13.13,0,0,1,.05-.12.17.17,0,0,1,.12,0,.18.18,0,0,1,.12,0,.16.16,0,0,1,0,.12Z"/><path class="cls-1" d="M31,97a.16.16,0,0,1,.12,0,.17.17,0,0,1,.05.12.15.15,0,0,1-.17.15H29.65a.13.13,0,0,1-.12,0,.15.15,0,0,1,0-.11V94.65a.16.16,0,0,1,0-.12.21.21,0,0,1,.13,0,.16.16,0,0,1,.11,0,.13.13,0,0,1,.05.12V97L29.74,97Z"/><path class="cls-1" d="M32.53,94.48H34a.17.17,0,0,1,.12,0,.16.16,0,0,1,0,.11.14.14,0,0,1,0,.11.16.16,0,0,1-.12,0H32.67l0-.06v1l0,0h1.11a.21.21,0,0,1,.12,0,.17.17,0,0,1,0,.12.14.14,0,0,1,0,.11.16.16,0,0,1-.12,0h-1.1l0,0v1l0,0H34a.17.17,0,0,1,.12,0,.15.15,0,0,1-.12.26H32.53a.16.16,0,0,1-.12,0,.15.15,0,0,1,0-.11V94.65a.16.16,0,0,1,0-.12A.21.21,0,0,1,32.53,94.48Z"/><path class="cls-1" d="M37.34,94.48a.17.17,0,0,1,.17.17v2.47a.16.16,0,0,1,0,.11.16.16,0,0,1-.12,0,.13.13,0,0,1-.12,0,.16.16,0,0,1,0-.11V94.65a.17.17,0,0,1,.17-.17Zm0,1.22h1.86V96H37.31Zm1.85-1.22a.17.17,0,0,1,.12,0,.13.13,0,0,1,.05.12v2.47a.16.16,0,0,1-.05.11.17.17,0,0,1-.24,0,.16.16,0,0,1-.05-.11V94.65a.17.17,0,0,1,.05-.12A.21.21,0,0,1,39.18,94.48Z"/><path class="cls-1" d="M43.29,95.88a1.7,1.7,0,0,1-.1.57,1.29,1.29,0,0,1-.29.46,1.25,1.25,0,0,1-.42.3,1.26,1.26,0,0,1-.55.11,1.17,1.17,0,0,1-.53-.11,1.19,1.19,0,0,1-.43-.3,1.27,1.27,0,0,1-.28-.46,1.48,1.48,0,0,1-.1-.57,1.56,1.56,0,0,1,.1-.57,1.46,1.46,0,0,1,.28-.46,1.19,1.19,0,0,1,.43-.3,1.32,1.32,0,0,1,.53-.11,1.42,1.42,0,0,1,.55.11,1.25,1.25,0,0,1,.42.3,1.49,1.49,0,0,1,.29.46A1.8,1.8,0,0,1,43.29,95.88Zm-.35,0a1.24,1.24,0,0,0-.13-.58.89.89,0,0,0-.35-.39.94.94,0,0,0-.53-.15.9.9,0,0,0-.51.15,1,1,0,0,0-.36.39,1.36,1.36,0,0,0,0,1.16,1.07,1.07,0,0,0,.36.4,1,1,0,0,0,.51.14,1,1,0,0,0,.53-.14,1,1,0,0,0,.35-.4A1.21,1.21,0,0,0,42.94,95.88Z"/><path class="cls-1" d="M44.39,94.79a.16.16,0,0,1-.12,0,.17.17,0,0,1-.05-.12.16.16,0,0,1,.05-.11.21.21,0,0,1,.12,0h1.86a.16.16,0,0,1,.11,0,.14.14,0,0,1,0,.11.16.16,0,0,1,0,.11.15.15,0,0,1-.11,0Zm.92,2.49a.13.13,0,0,1-.12,0,.15.15,0,0,1,0-.11V94.65h.34v2.47a.16.16,0,0,1-.05.11A.14.14,0,0,1,45.31,97.28Z"/><path class="cls-1" d="M47.76,94.48h1.43a.17.17,0,0,1,.16.16.14.14,0,0,1-.05.11.15.15,0,0,1-.11,0H47.9l0-.06v1l0,0H49a.21.21,0,0,1,.11,0,.17.17,0,0,1,.05.12.14.14,0,0,1-.05.11A.15.15,0,0,1,49,96h-1.1l0,0v1l0,0h1.28a.16.16,0,0,1,.11.27.15.15,0,0,1-.11,0H47.76a.17.17,0,0,1-.16-.16V94.65a.13.13,0,0,1,0-.12A.16.16,0,0,1,47.76,94.48Z"/><path class="cls-1" d="M52.14,97a.15.15,0,0,1,.11,0,.13.13,0,0,1,0,.12.13.13,0,0,1,0,.11.15.15,0,0,1-.11,0H50.75a.13.13,0,0,1-.11,0,.16.16,0,0,1,0-.11V94.65a.17.17,0,0,1,.34,0V97L50.85,97Z"/><path class="cls-1" d="M54.29,97.32a1.38,1.38,0,0,1-.52-.09,1.22,1.22,0,0,1-.43-.28.1.1,0,0,1-.05-.06.19.19,0,0,1,0-.07.21.21,0,0,1,0-.12.16.16,0,0,1,.11,0,.12.12,0,0,1,.1,0,1.2,1.2,0,0,0,.34.23,1.07,1.07,0,0,0,.41.08A.79.79,0,0,0,54.6,97a.44.44,0,0,0,.22-.15.35.35,0,0,0,.09-.23.4.4,0,0,0-.09-.27.79.79,0,0,0-.25-.17A1.79,1.79,0,0,0,54.2,96a1.93,1.93,0,0,1-.34-.11.93.93,0,0,1-.26-.15.58.58,0,0,1-.18-.23.76.76,0,0,1-.06-.32.7.7,0,0,1,.12-.4.78.78,0,0,1,.33-.26,1.13,1.13,0,0,1,.49-.1,1.34,1.34,0,0,1,.46.08.92.92,0,0,1,.35.22.19.19,0,0,1,.08.15.13.13,0,0,1,0,.11.16.16,0,0,1-.11,0A.11.11,0,0,1,55,95a.59.59,0,0,0-.17-.13.94.94,0,0,0-.23-.1,1,1,0,0,0-.25,0,.79.79,0,0,0-.32.06.44.44,0,0,0-.22.15.36.36,0,0,0-.08.23.35.35,0,0,0,.09.25.6.6,0,0,0,.24.16,2,2,0,0,0,.32.11,2.74,2.74,0,0,1,.37.11A1.06,1.06,0,0,1,55,96a.75.75,0,0,1,.19.24.88.88,0,0,1,.06.35.65.65,0,0,1-.12.39.77.77,0,0,1-.34.27A1.06,1.06,0,0,1,54.29,97.32Z"/></svg>