<svg xmlns="http://www.w3.org/2000/svg" width="47.054" height="47.053" viewBox="0 0 47.054 47.053"><defs><style>.a{fill:#defcfc;fill-rule:evenodd;}</style></defs><g transform="translate(-1.59 -1.59)"><path class="a" d="M18.395,1.59a12.334,12.334,0,0,0-3.4.476,1.12,1.12,0,1,0,.617,2.153A10.091,10.091,0,0,1,23.092,5a1.121,1.121,0,0,0,1.046-1.982A12.277,12.277,0,0,0,18.395,1.59Zm-6.449,2a1.12,1.12,0,0,0-.594.209,12.32,12.32,0,0,0-5.28,10.113c0,4.761,1.821,8.392,4.109,11.824.609.914,1.252,1.822,1.907,2.74h-1.8a4.8,4.8,0,0,0-3.078.928,4.347,4.347,0,0,0-1.346,2.079L1.777,43.738a3.686,3.686,0,0,0,.362,3.1A4.169,4.169,0,0,0,5.8,48.643H44.429a4.169,4.169,0,0,0,3.665-1.806,3.686,3.686,0,0,0,.362-3.1L44.371,31.484a4.347,4.347,0,0,0-1.346-2.079,4.8,4.8,0,0,0-3.078-.928H24.7c.655-.918,1.3-1.826,1.907-2.74,2.288-3.433,4.109-7.063,4.109-11.824A12.277,12.277,0,0,0,29.3,8.171a1.121,1.121,0,1,0-1.982,1.046,10.016,10.016,0,0,1,1.165,4.7c0,4.2-1.54,7.292-3.733,10.582-1.89,2.835-4.251,5.816-6.35,9.526-2.1-3.71-4.46-6.691-6.35-9.526-2.193-3.289-3.733-6.38-3.733-10.582a10.06,10.06,0,0,1,4.321-8.275A1.12,1.12,0,0,0,11.946,3.591Zm14.388,1.28a1.12,1.12,0,1,0,.776.328A1.12,1.12,0,0,0,26.333,4.871ZM18.4,8.31a5.6,5.6,0,1,0,5.6,5.6A5.622,5.622,0,0,0,18.4,8.31Zm0,2.242a3.362,3.362,0,1,1-3.362,3.362A3.346,3.346,0,0,1,18.4,10.551Zm-8.11,20.167h3.389c.979,1.405,1.952,2.872,2.857,4.482H13.914a1.121,1.121,0,1,0,0,2.241h8.965a1.121,1.121,0,1,0,0-2.241h-2.62c.9-1.61,1.878-3.077,2.857-4.482H33.738a6.7,6.7,0,0,0,.661,3.641,3.266,3.266,0,0,1,.384,2.019c-.11.447-.358.8-1.162,1.161a5.928,5.928,0,0,0-1.243.232,4.709,4.709,0,0,0-2.373,1.208,4.346,4.346,0,0,0-1.143,2.114,10.033,10.033,0,0,1-.424,1.647A6.439,6.439,0,0,1,25.728,44.8a30.275,30.275,0,0,1-4.308,1.6H5.8c-1.144,0-1.519-.351-1.752-.732A1.714,1.714,0,0,1,3.9,44.447L7.987,32.193a2.124,2.124,0,0,1,.629-1.045A2.487,2.487,0,0,1,10.286,30.718Zm25.7,0h3.959a2.487,2.487,0,0,1,1.67.43,2.124,2.124,0,0,1,.629,1.045l4.085,12.254a1.714,1.714,0,0,1-.151,1.223c-.232.381-.607.732-1.752.732H27.506a6.007,6.007,0,0,0,3-2.806,10.444,10.444,0,0,0,.536-1.993,1.736,1.736,0,0,1,.546-1.04,2.581,2.581,0,0,1,1.281-.606,6.246,6.246,0,0,0,1.667-.374,4.1,4.1,0,0,0,2.421-2.669,5.3,5.3,0,0,0-.525-3.492A3.944,3.944,0,0,1,35.988,30.718ZM26.237,35.2a1.12,1.12,0,1,0,1.12,1.12A1.12,1.12,0,0,0,26.237,35.2Z"/></g></svg>