<svg xmlns="http://www.w3.org/2000/svg" width="70.077" height="47.004" viewBox="0 0 70.077 47.004"><defs><style>.a{fill:#596e79;}</style></defs><g transform="translate(-10 -90.996)"><path class="a" d="M230.244,121.458a5.8,5.8,0,1,0-5.8,5.787,5.8,5.8,0,0,0,5.8-5.787Zm-5.8,4.077a4.077,4.077,0,1,1,4.092-4.077A4.077,4.077,0,0,1,224.444,125.535Z" transform="translate(-178.924 -21.136)"/><path class="a" d="M102.9,257.1a4.006,4.006,0,1,0,4.015,4.005A4.006,4.006,0,0,0,102.9,257.1Zm0,6.3a2.3,2.3,0,1,1,2.306-2.3,2.3,2.3,0,0,1-2.306,2.3Z" transform="translate(-76.243 -142.445)"/><path class="a" d="M284.42,309.382a3.433,3.433,0,1,0,3.44,3.433A3.433,3.433,0,0,0,284.42,309.382Zm0,5.156a1.723,1.723,0,1,1,1.731-1.723,1.723,1.723,0,0,1-1.731,1.723Z" transform="translate(-232.396 -187.28)"/><path class="a" d="M412.635,185.98a3.433,3.433,0,1,0-3.44-3.433A3.433,3.433,0,0,0,412.635,185.98Zm0-5.156a1.723,1.723,0,1,1-1.731,1.723A1.723,1.723,0,0,1,412.635,180.824Z" transform="translate(-342.336 -75.568)"/><path class="a" d="M72.791,113.722l2.254-3a5.952,5.952,0,0,0,1.217-3.967,5.805,5.805,0,0,0-11.6,0,5.7,5.7,0,0,0,.259,2.088l-14.1.259L53,106.2a9.51,9.51,0,0,0,1.947-6.338,9.638,9.638,0,0,0-2.788-6.182,9.139,9.139,0,0,0-12.93,0,9.5,9.5,0,0,0-.841,12.519l1.882,2.508-20.031.132a.855.855,0,0,0-.8.578l-9.392,27.457A.855.855,0,0,0,10.855,138H79.223a.855.855,0,0,0,.816-1.11Zm-6.424-6.86a4.1,4.1,0,0,1,8.188,0,4.245,4.245,0,0,1-.878,2.826l-3.216,4.287-3.21-4.279a4.36,4.36,0,0,1-.883-2.837Zm-.618,3.67c.043.062.085.124.13.185l3.9,5.2a.855.855,0,0,0,1.367,0l.382-.508.972,3.106-13.251,0-.96-7.847Zm-25.985-5.354a7.787,7.787,0,0,1,.678-10.294,7.43,7.43,0,0,1,10.509,0,7.931,7.931,0,0,1,2.293,5.088,7.8,7.8,0,0,1-1.609,5.2L45.7,113.084ZM12.05,136.291l4.44-12.979,5.055-.015,4.63,6.171a.855.855,0,0,0,1.367,0l3.689-4.918.045,11.741Zm18.891-14.2-4.083,5.442L22.781,122.1a5.519,5.519,0,0,1-1.116-3.592,5.2,5.2,0,0,1,10.387,0,5.379,5.379,0,0,1-1.11,3.581Zm13.469,5.244a.855.855,0,0,0-.255.609l0,8.35H32.986l-.054-14.156a6.92,6.92,0,1,0-12.4-.545l-3.46.011,3.783-11.061,20.69-.136,3.464,4.617a.855.855,0,0,0,1.367,0l3.144-4.192,7.045-.129,1.073,8.774a.855.855,0,0,0,.848.751l14.542,0,2.144,6.855-17.361.029a5.694,5.694,0,0,0,.169-1.8,5.805,5.805,0,0,0-11.6,0,5.642,5.642,0,0,0,.177,1.805l-1.541-.023A.831.831,0,0,0,44.411,127.332Zm10.992.913-3.216,4.287-3.21-4.279a4.359,4.359,0,0,1-.884-2.837,4.1,4.1,0,0,1,8.188,0,4.247,4.247,0,0,1-.878,2.826Zm-9.533,8.046,0-7.483,1.44.021q.139.225.3.442l3.9,5.2a.855.855,0,0,0,1.367,0l3.9-5.2q.167-.222.312-.456l18.63-.032,2.348,7.506Z"/></g></svg>