<svg xmlns="http://www.w3.org/2000/svg" width="77.187" height="46.313" viewBox="0 0 77.187 46.313"><defs><style>.a{fill:#596e79;}</style></defs><g transform="translate(-15.999 -104)"><path class="a" d="M92.992,136.766a1.294,1.294,0,0,0-.921-.593l-15.785-2.1-.029,0,.978-.733a1.286,1.286,0,0,0,.318-1.711l-5.217-8.346a5.381,5.381,0,0,0-3.719-2.476l-.328-2.952a7.718,7.718,0,1,0-12.409-6.127,1.282,1.282,0,0,0,.593,1.082l-1.745,3.488a1.286,1.286,0,0,0,1.151,1.862h1.286v1.286a1.286,1.286,0,0,0,1.286,1.286h1.286v.923a5.851,5.851,0,0,0-.91.74,5.666,5.666,0,0,0-1.523,2.758l-3.7-1.851a3.857,3.857,0,0,0-4.538-.905l-.769-.77,1.11-4.441a1.29,1.29,0,0,0-.338-1.222l-7.719-7.719a1.289,1.289,0,0,0-1.82,0L33.1,114.668a1.289,1.289,0,0,0,0,1.82l7.719,7.719a1.287,1.287,0,0,0,1.222.338l4.438-1.11.772.775a3.858,3.858,0,0,0,5.131,5.149l6.664,6.688-1.732-1.04a9.958,9.958,0,0,0-5.122-1.418H43.539a57.189,57.189,0,0,0-6.312.35l-20.083,2.231a1.286,1.286,0,0,0-1.079,1.685l.151.453a18.226,18.226,0,0,0,3.933,6.651l1.889-1.746a15.635,15.635,0,0,1-2.989-4.667l6.038-.671,5.545,4.437a1.291,1.291,0,0,0,.8.281H48.161a1.286,1.286,0,0,0,1.286-1.286v-5.146h2.745a7.386,7.386,0,0,1,3.8,1.051L58.3,138.6a9.957,9.957,0,0,0,1.481.728,3.856,3.856,0,0,0,5.43,2.906l1.33,1.336,1.824-1.817-1.013-1.016,4.874-3.655a7.382,7.382,0,0,1,3.715-.466l14.165,1.889a15.666,15.666,0,0,1-2.943,4.392l1.869,1.769a18.476,18.476,0,0,0,4.084-6.813,1.292,1.292,0,0,0-.129-1.089ZM45.813,120.949l-3.69.923-6.294-6.294,4.614-4.614,6.294,6.294Zm4.921,6.207a1.286,1.286,0,1,1,1.286-1.286A1.286,1.286,0,0,1,50.733,127.156Zm6.432,3.359-2.957-2.968a3.8,3.8,0,0,0,.309-.92l2.648,1.323ZM34.01,140.02H31.889L28.7,137.473l5.3-.59Zm6.432,0H36.583V136.6l.923-.1c.973-.108,1.954-.19,2.936-.246Zm6.432,0H43.015v-3.856c.175,0,.351,0,.524,0h3.335ZM63.6,106.573a5.147,5.147,0,0,1,3.046,9.295l-1.851-4.626a1.287,1.287,0,0,0-1.195-.809H58.615A5.155,5.155,0,0,1,63.6,106.573Zm-1.286,14.151v-.754l2.287-2.287.195.486a1.287,1.287,0,0,0,1.032.8l.195,1.758Zm-3.859-5.146H57.96l1.286-2.573h3.48l.833,2.079-3.067,3.067h-.754v-1.286A1.286,1.286,0,0,0,58.452,115.578ZM63.6,140.02a1.286,1.286,0,1,1,1.286-1.286A1.286,1.286,0,0,1,63.6,140.02Zm-.133-5.143a3.827,3.827,0,0,0-1.561.391L59.739,133.1V126.4a3.107,3.107,0,0,1,3.105-3.105h.28a5.392,5.392,0,0,0-.812,2.853v.224a5.452,5.452,0,0,0,2.169,4.34l2.163,1.621Zm3.816,2.7a3.872,3.872,0,0,0-1.024-1.64l3.292-2.632a1.287,1.287,0,0,0-.032-2.034l-3.491-2.618a2.864,2.864,0,0,1-1.14-2.282v-.224a2.852,2.852,0,0,1,5.271-1.512l4.589,7.344Z" transform="translate(0)"/><path class="a" d="M94.569,362.573a4.1,4.1,0,0,1-2.8-1.042,6.836,6.836,0,0,0-8.622,0,4.29,4.29,0,0,1-5.606,0,6.836,6.836,0,0,0-8.621,0,4.289,4.289,0,0,1-5.6,0,6.835,6.835,0,0,0-8.621,0,4.289,4.289,0,0,1-5.605,0,6.836,6.836,0,0,0-8.621,0,4.289,4.289,0,0,1-5.605,0,6.835,6.835,0,0,0-8.621,0,4.094,4.094,0,0,1-2.8,1.042,3.9,3.9,0,0,1-1.6-.3l-1.027,2.359a6.464,6.464,0,0,0,2.63.511,6.618,6.618,0,0,0,4.31-1.531,4.289,4.289,0,0,1,5.6,0,6.835,6.835,0,0,0,8.621,0,4.289,4.289,0,0,1,5.605,0,6.836,6.836,0,0,0,8.621,0,4.289,4.289,0,0,1,5.6,0,6.835,6.835,0,0,0,8.621,0,4.289,4.289,0,0,1,5.605,0,6.836,6.836,0,0,0,8.622,0,4.29,4.29,0,0,1,5.606,0,6.619,6.619,0,0,0,4.311,1.531,6.991,6.991,0,0,0,1.668-.188l-.607-2.5A4.462,4.462,0,0,1,94.569,362.573Z" transform="translate(-4.034 -214.834)"/></g></svg>